<svg xmlns="http://www.w3.org/2000/svg" xmlns:xlink="http://www.w3.org/1999/xlink" width="177" zoomAndPan="magnify" viewBox="0 0 132.75 157.5" height="210" preserveAspectRatio="xMidYMid meet" version="1.0"><defs><g/><clipPath id="9962b350a0"><path d="M 42.714844 21.78125 L 89.066406 21.78125 L 89.066406 78.601562 L 42.714844 78.601562 Z M 42.714844 21.78125 " clip-rule="nonzero"/></clipPath><clipPath id="01b5e8e2bf"><path d="M 0.0898438 0 L 130.175781 0 L 130.175781 157 L 0.0898438 157 Z M 0.0898438 0 " clip-rule="nonzero"/></clipPath><clipPath id="f7f4904504"><path d="M 12.050781 0 L 118.453125 0 C 121.628906 0 124.667969 1.261719 126.914062 3.503906 C 129.15625 5.746094 130.414062 8.789062 130.414062 11.960938 L 130.414062 144.796875 C 130.414062 147.96875 129.15625 151.011719 126.914062 153.253906 C 124.667969 155.496094 121.628906 156.757812 118.453125 156.757812 L 12.050781 156.757812 C 8.878906 156.757812 5.835938 155.496094 3.59375 153.253906 C 1.351562 151.011719 0.0898438 147.96875 0.0898438 144.796875 L 0.0898438 11.960938 C 0.0898438 8.789062 1.351562 5.746094 3.59375 3.503906 C 5.835938 1.261719 8.878906 0 12.050781 0 Z M 12.050781 0 " clip-rule="nonzero"/></clipPath></defs><g clip-path="url(#9962b350a0)"><path fill="#000000" d="M 85.597656 21.78125 L 49.640625 21.78125 C 49.183594 21.78125 48.742188 21.871094 48.316406 22.046875 C 47.894531 22.222656 47.519531 22.472656 47.195312 22.796875 C 46.871094 23.121094 46.621094 23.496094 46.445312 23.921875 C 46.269531 24.347656 46.183594 24.789062 46.183594 25.246094 L 46.183594 27.328125 L 44.613281 27.328125 C 44.363281 27.328125 44.121094 27.375 43.890625 27.472656 C 43.660156 27.570312 43.457031 27.707031 43.28125 27.882812 C 43.105469 28.058594 42.96875 28.265625 42.871094 28.496094 C 42.773438 28.726562 42.726562 28.96875 42.726562 29.21875 L 42.726562 29.59375 C 42.726562 29.84375 42.773438 30.082031 42.871094 30.316406 C 42.96875 30.546875 43.105469 30.75 43.28125 30.929688 C 43.457031 31.105469 43.660156 31.242188 43.890625 31.339844 C 44.121094 31.433594 44.363281 31.484375 44.613281 31.484375 L 46.183594 31.484375 L 46.183594 34.253906 L 44.613281 34.253906 C 44.363281 34.257812 44.121094 34.304688 43.890625 34.402344 C 43.660156 34.496094 43.457031 34.632812 43.28125 34.8125 C 43.105469 34.988281 42.96875 35.191406 42.871094 35.425781 C 42.773438 35.65625 42.726562 35.898438 42.726562 36.148438 L 42.726562 36.519531 C 42.726562 36.773438 42.773438 37.011719 42.871094 37.246094 C 42.96875 37.476562 43.105469 37.679688 43.28125 37.855469 C 43.457031 38.035156 43.660156 38.171875 43.890625 38.265625 C 44.121094 38.363281 44.363281 38.414062 44.613281 38.414062 L 46.183594 38.414062 L 46.183594 41.183594 L 44.613281 41.183594 C 44.363281 41.1875 44.121094 41.234375 43.890625 41.332031 C 43.660156 41.425781 43.457031 41.5625 43.28125 41.742188 C 43.105469 41.917969 42.96875 42.121094 42.871094 42.355469 C 42.773438 42.585938 42.726562 42.824219 42.726562 43.078125 L 42.726562 43.449219 C 42.726562 43.703125 42.773438 43.941406 42.871094 44.171875 C 42.96875 44.40625 43.105469 44.609375 43.28125 44.785156 C 43.457031 44.964844 43.660156 45.101562 43.890625 45.195312 C 44.121094 45.292969 44.363281 45.339844 44.613281 45.34375 L 46.183594 45.34375 L 46.183594 55.042969 L 44.613281 55.042969 C 44.363281 55.042969 44.121094 55.09375 43.890625 55.1875 C 43.660156 55.285156 43.457031 55.421875 43.28125 55.597656 C 43.105469 55.777344 42.96875 55.980469 42.871094 56.210938 C 42.773438 56.445312 42.726562 56.683594 42.726562 56.933594 L 42.726562 57.308594 C 42.726562 57.558594 42.773438 57.800781 42.871094 58.03125 C 42.96875 58.261719 43.105469 58.46875 43.28125 58.644531 C 43.457031 58.820312 43.660156 58.957031 43.890625 59.054688 C 44.121094 59.152344 44.363281 59.199219 44.613281 59.199219 L 46.183594 59.199219 L 46.183594 61.972656 L 44.613281 61.972656 C 44.363281 61.972656 44.121094 62.023438 43.890625 62.117188 C 43.660156 62.214844 43.457031 62.351562 43.28125 62.527344 C 43.105469 62.707031 42.96875 62.910156 42.871094 63.140625 C 42.773438 63.371094 42.726562 63.613281 42.726562 63.863281 L 42.726562 64.238281 C 42.726562 64.488281 42.773438 64.730469 42.871094 64.960938 C 42.96875 65.191406 43.105469 65.398438 43.28125 65.574219 C 43.457031 65.75 43.660156 65.886719 43.890625 65.984375 C 44.121094 66.082031 44.363281 66.128906 44.613281 66.128906 L 46.183594 66.128906 L 46.183594 68.902344 L 44.613281 68.902344 C 44.363281 68.902344 44.121094 68.953125 43.890625 69.046875 C 43.660156 69.144531 43.457031 69.28125 43.28125 69.457031 C 43.105469 69.636719 42.96875 69.839844 42.871094 70.070312 C 42.773438 70.300781 42.726562 70.542969 42.726562 70.792969 L 42.726562 71.167969 C 42.726562 71.417969 42.773438 71.660156 42.871094 71.890625 C 42.96875 72.121094 43.105469 72.324219 43.28125 72.503906 C 43.457031 72.679688 43.660156 72.816406 43.890625 72.914062 C 44.121094 73.007812 44.363281 73.058594 44.613281 73.058594 L 46.183594 73.058594 L 46.183594 75.136719 C 46.183594 75.597656 46.269531 76.039062 46.445312 76.464844 C 46.621094 76.886719 46.871094 77.261719 47.195312 77.585938 C 47.519531 77.914062 47.894531 78.164062 48.316406 78.339844 C 48.742188 78.515625 49.183594 78.601562 49.640625 78.601562 L 85.597656 78.601562 C 86.054688 78.601562 86.496094 78.515625 86.921875 78.339844 C 87.34375 78.164062 87.71875 77.914062 88.042969 77.585938 C 88.367188 77.261719 88.617188 76.886719 88.792969 76.464844 C 88.96875 76.039062 89.054688 75.597656 89.054688 75.136719 L 89.054688 25.246094 C 89.054688 24.789062 88.96875 24.347656 88.792969 23.921875 C 88.617188 23.496094 88.367188 23.121094 88.042969 22.796875 C 87.71875 22.472656 87.34375 22.222656 86.921875 22.046875 C 86.496094 21.871094 86.054688 21.78125 85.597656 21.78125 Z M 49.640625 71.167969 C 49.640625 71.308594 49.589844 71.425781 49.492188 71.523438 C 49.394531 71.621094 49.273438 71.671875 49.136719 71.671875 L 44.613281 71.671875 C 44.472656 71.671875 44.355469 71.621094 44.257812 71.523438 C 44.160156 71.425781 44.109375 71.308594 44.109375 71.167969 L 44.109375 70.792969 C 44.109375 70.652344 44.160156 70.535156 44.257812 70.4375 C 44.355469 70.339844 44.472656 70.289062 44.613281 70.289062 L 49.136719 70.289062 C 49.273438 70.289062 49.394531 70.339844 49.492188 70.4375 C 49.589844 70.535156 49.640625 70.652344 49.640625 70.792969 Z M 49.640625 64.238281 C 49.640625 64.378906 49.589844 64.496094 49.492188 64.59375 C 49.394531 64.695312 49.273438 64.742188 49.136719 64.746094 L 44.613281 64.746094 C 44.472656 64.742188 44.355469 64.695312 44.257812 64.59375 C 44.160156 64.496094 44.109375 64.378906 44.109375 64.238281 L 44.109375 63.863281 C 44.109375 63.726562 44.160156 63.605469 44.257812 63.507812 C 44.355469 63.410156 44.472656 63.359375 44.613281 63.359375 L 49.136719 63.359375 C 49.273438 63.359375 49.394531 63.410156 49.492188 63.507812 C 49.589844 63.605469 49.640625 63.726562 49.640625 63.863281 Z M 49.640625 57.308594 C 49.640625 57.449219 49.589844 57.566406 49.492188 57.664062 C 49.394531 57.765625 49.273438 57.8125 49.136719 57.816406 L 44.613281 57.816406 C 44.472656 57.8125 44.355469 57.765625 44.257812 57.664062 C 44.160156 57.566406 44.109375 57.449219 44.109375 57.308594 L 44.109375 56.933594 C 44.109375 56.796875 44.160156 56.675781 44.257812 56.578125 C 44.355469 56.480469 44.472656 56.429688 44.613281 56.429688 L 49.136719 56.429688 C 49.273438 56.429688 49.394531 56.480469 49.492188 56.578125 C 49.589844 56.675781 49.640625 56.796875 49.640625 56.933594 Z M 49.640625 43.449219 C 49.640625 43.589844 49.589844 43.710938 49.492188 43.808594 C 49.394531 43.90625 49.273438 43.957031 49.136719 43.957031 L 44.613281 43.957031 C 44.472656 43.957031 44.355469 43.90625 44.257812 43.808594 C 44.160156 43.710938 44.109375 43.589844 44.109375 43.449219 L 44.109375 43.078125 C 44.109375 42.9375 44.160156 42.816406 44.257812 42.71875 C 44.355469 42.621094 44.472656 42.570312 44.613281 42.570312 L 49.136719 42.570312 C 49.273438 42.570312 49.394531 42.621094 49.492188 42.71875 C 49.589844 42.816406 49.640625 42.9375 49.640625 43.078125 Z M 49.640625 36.519531 C 49.640625 36.660156 49.589844 36.78125 49.492188 36.878906 C 49.394531 36.976562 49.273438 37.027344 49.136719 37.027344 L 44.613281 37.027344 C 44.472656 37.027344 44.355469 36.976562 44.257812 36.878906 C 44.160156 36.78125 44.109375 36.660156 44.109375 36.519531 L 44.109375 36.148438 C 44.109375 36.007812 44.160156 35.890625 44.257812 35.789062 C 44.355469 35.691406 44.472656 35.640625 44.613281 35.640625 L 49.136719 35.640625 C 49.273438 35.640625 49.394531 35.691406 49.492188 35.789062 C 49.589844 35.890625 49.640625 36.007812 49.640625 36.148438 Z M 49.640625 29.59375 C 49.640625 29.730469 49.589844 29.851562 49.492188 29.949219 C 49.394531 30.046875 49.273438 30.097656 49.136719 30.097656 L 44.613281 30.097656 C 44.472656 30.097656 44.355469 30.046875 44.257812 29.949219 C 44.160156 29.851562 44.109375 29.730469 44.109375 29.59375 L 44.109375 29.21875 C 44.109375 29.078125 44.160156 28.960938 44.257812 28.859375 C 44.355469 28.761719 44.472656 28.714844 44.613281 28.710938 L 49.136719 28.710938 C 49.273438 28.714844 49.394531 28.761719 49.492188 28.859375 C 49.589844 28.960938 49.640625 29.078125 49.640625 29.21875 Z M 79.375 47.941406 L 79.375 49.5 L 57.246094 49.5 L 57.246094 47.941406 C 57.246094 47.476562 57.273438 47.015625 57.335938 46.554688 C 57.386719 46.128906 57.464844 45.710938 57.570312 45.292969 C 57.722656 44.703125 57.917969 44.132812 58.164062 43.574219 C 58.410156 43.019531 58.699219 42.484375 59.035156 41.976562 C 59.367188 41.46875 59.738281 40.992188 60.152344 40.542969 C 60.566406 40.097656 61.011719 39.6875 61.492188 39.316406 C 61.972656 38.945312 62.480469 38.617188 63.015625 38.328125 C 63.550781 38.042969 64.109375 37.800781 64.683594 37.605469 C 65.257812 37.410156 65.84375 37.265625 66.445312 37.167969 C 67.042969 37.070312 67.648438 37.023438 68.253906 37.027344 L 68.367188 37.027344 C 69.085938 37.023438 69.796875 37.089844 70.503906 37.226562 C 71.207031 37.367188 71.894531 37.570312 72.558594 37.84375 C 73.222656 38.113281 73.855469 38.449219 74.457031 38.847656 C 75.054688 39.242188 75.613281 39.695312 76.121094 40.203125 C 76.632812 40.707031 77.089844 41.261719 77.492188 41.855469 C 77.894531 42.453125 78.238281 43.085938 78.515625 43.746094 C 78.792969 44.410156 79.007812 45.097656 79.152344 45.800781 C 79.296875 46.507812 79.371094 47.21875 79.375 47.941406 Z M 79.414062 50.886719 L 78.433594 52.273438 L 58.1875 52.273438 L 57.207031 50.886719 Z M 61.394531 64.050781 C 61.394531 64.242188 61.328125 64.40625 61.191406 64.542969 C 61.058594 64.675781 60.894531 64.746094 60.703125 64.746094 C 60.511719 64.746094 60.351562 64.675781 60.214844 64.542969 C 60.082031 64.40625 60.011719 64.242188 60.011719 64.050781 L 60.011719 59.042969 L 58.539062 61.625 C 58.472656 61.726562 58.386719 61.804688 58.277344 61.863281 C 58.171875 61.917969 58.058594 61.949219 57.9375 61.949219 C 57.816406 61.949219 57.703125 61.917969 57.597656 61.863281 C 57.492188 61.804688 57.402344 61.726562 57.335938 61.625 L 55.863281 59.042969 L 55.863281 64.050781 C 55.863281 64.242188 55.796875 64.40625 55.660156 64.542969 C 55.527344 64.675781 55.363281 64.746094 55.171875 64.746094 C 54.980469 64.746094 54.816406 64.675781 54.683594 64.542969 C 54.546875 64.40625 54.480469 64.242188 54.480469 64.050781 L 54.480469 56.429688 C 54.480469 56.273438 54.527344 56.128906 54.625 56.003906 C 54.71875 55.878906 54.84375 55.796875 54.992188 55.757812 C 55.144531 55.714844 55.292969 55.726562 55.4375 55.785156 C 55.585938 55.847656 55.695312 55.945312 55.773438 56.082031 L 57.9375 59.878906 L 60.101562 56.082031 C 60.179688 55.945312 60.292969 55.847656 60.4375 55.785156 C 60.582031 55.726562 60.730469 55.714844 60.882812 55.757812 C 61.035156 55.796875 61.15625 55.878906 61.253906 56.003906 C 61.347656 56.128906 61.394531 56.273438 61.394531 56.429688 Z M 66.925781 59.199219 C 67.117188 59.199219 67.28125 59.269531 67.417969 59.402344 C 67.550781 59.539062 67.617188 59.703125 67.617188 59.894531 C 67.617188 60.085938 67.550781 60.25 67.417969 60.382812 C 67.28125 60.519531 67.117188 60.585938 66.925781 60.585938 L 64.160156 60.585938 L 64.160156 63.359375 L 66.925781 63.359375 C 67.117188 63.359375 67.28125 63.425781 67.417969 63.5625 C 67.550781 63.695312 67.617188 63.859375 67.617188 64.050781 C 67.617188 64.242188 67.550781 64.40625 67.417969 64.542969 C 67.28125 64.675781 67.117188 64.746094 66.925781 64.746094 L 63.46875 64.746094 C 63.277344 64.742188 63.117188 64.675781 62.980469 64.539062 C 62.847656 64.40625 62.777344 64.242188 62.777344 64.050781 L 62.777344 56.429688 C 62.777344 56.238281 62.847656 56.074219 62.980469 55.941406 C 63.117188 55.804688 63.277344 55.738281 63.46875 55.734375 L 66.925781 55.734375 C 67.117188 55.734375 67.28125 55.804688 67.417969 55.9375 C 67.550781 56.074219 67.617188 56.238281 67.617188 56.429688 C 67.617188 56.621094 67.550781 56.785156 67.417969 56.917969 C 67.28125 57.054688 67.117188 57.121094 66.925781 57.121094 L 64.160156 57.121094 L 64.160156 59.199219 Z M 74.535156 64.050781 C 74.535156 64.210938 74.488281 64.351562 74.390625 64.476562 C 74.292969 64.601562 74.167969 64.683594 74.015625 64.722656 C 73.957031 64.738281 73.902344 64.742188 73.84375 64.746094 C 73.566406 64.746094 73.363281 64.625 73.234375 64.382812 L 70.386719 59.144531 L 70.386719 64.050781 C 70.386719 64.242188 70.316406 64.40625 70.183594 64.542969 C 70.046875 64.675781 69.882812 64.746094 69.691406 64.746094 C 69.503906 64.746094 69.339844 64.675781 69.203125 64.542969 C 69.070312 64.40625 69 64.242188 69 64.050781 L 69 56.429688 C 69 56.269531 69.050781 56.128906 69.144531 56.003906 C 69.242188 55.878906 69.367188 55.796875 69.519531 55.757812 C 69.675781 55.71875 69.824219 55.730469 69.96875 55.792969 C 70.113281 55.855469 70.226562 55.957031 70.300781 56.097656 L 73.152344 61.335938 L 73.152344 56.429688 C 73.152344 56.238281 73.21875 56.074219 73.351562 55.9375 C 73.488281 55.804688 73.652344 55.734375 73.84375 55.734375 C 74.03125 55.734375 74.195312 55.804688 74.332031 55.9375 C 74.464844 56.074219 74.535156 56.238281 74.535156 56.429688 Z M 81.449219 61.972656 C 81.449219 62.339844 81.378906 62.695312 81.238281 63.03125 C 81.097656 63.371094 80.898438 63.671875 80.636719 63.933594 C 80.378906 64.191406 80.078125 64.390625 79.742188 64.53125 C 79.402344 64.675781 79.050781 64.746094 78.683594 64.746094 C 78.316406 64.746094 77.964844 64.675781 77.625 64.53125 C 77.285156 64.390625 76.984375 64.191406 76.726562 63.933594 C 76.46875 63.671875 76.265625 63.371094 76.128906 63.03125 C 75.988281 62.695312 75.917969 62.339844 75.917969 61.972656 L 75.917969 56.429688 C 75.917969 56.238281 75.984375 56.074219 76.121094 55.9375 C 76.253906 55.804688 76.417969 55.734375 76.609375 55.734375 C 76.800781 55.734375 76.960938 55.804688 77.097656 55.9375 C 77.230469 56.074219 77.300781 56.238281 77.300781 56.429688 L 77.300781 61.972656 C 77.300781 62.15625 77.335938 62.332031 77.40625 62.503906 C 77.476562 62.671875 77.574219 62.824219 77.703125 62.953125 C 77.835938 63.082031 77.984375 63.183594 78.152344 63.253906 C 78.324219 63.324219 78.5 63.359375 78.683594 63.359375 C 78.867188 63.359375 79.042969 63.324219 79.210938 63.253906 C 79.382812 63.183594 79.53125 63.082031 79.660156 62.953125 C 79.789062 62.824219 79.890625 62.671875 79.960938 62.503906 C 80.03125 62.332031 80.066406 62.15625 80.066406 61.972656 L 80.066406 56.429688 C 80.066406 56.238281 80.132812 56.074219 80.269531 55.9375 C 80.402344 55.804688 80.566406 55.734375 80.757812 55.734375 C 80.949219 55.734375 81.109375 55.804688 81.246094 55.9375 C 81.382812 56.074219 81.449219 56.238281 81.449219 56.429688 Z M 81.449219 61.972656 " fill-opacity="1" fill-rule="nonzero"/></g><g clip-path="url(#01b5e8e2bf)"><g clip-path="url(#f7f4904504)"><path stroke-linecap="butt" transform="matrix(0.747627, 0, 0, 0.747627, 0.0910283, 0.00000498418)" fill="none" stroke-linejoin="miter" d="M 15.996961 -0.00000666667 L 158.317139 -0.00000666667 C 162.564957 -0.00000666667 166.629904 1.687626 169.634203 4.6867 C 172.633277 7.685774 174.315685 11.755946 174.315685 15.998539 L 174.315685 193.675398 C 174.315685 197.917991 172.633277 201.988163 169.634203 204.987237 C 166.629904 207.986312 162.564957 209.673944 158.317139 209.673944 L 15.996961 209.673944 C 11.754368 209.673944 7.684196 207.986312 4.685122 204.987237 C 1.686048 201.988163 -0.00158437 197.917991 -0.00158437 193.675398 L -0.00158437 15.998539 C -0.00158437 11.755946 1.686048 7.685774 4.685122 4.6867 C 7.684196 1.687626 11.754368 -0.00000666667 15.996961 -0.00000666667 Z M 15.996961 -0.00000666667 " stroke="#000000" stroke-width="4" stroke-opacity="1" stroke-miterlimit="4"/></g></g><g fill="#9b9090" fill-opacity="1"><g transform="translate(48.905525, 96.058371)"><g><path d="M 2.40625 -1.171875 L 6.453125 -1.171875 L 6.453125 0 L 1.25 0 L 1.25 -11.3125 L 2.40625 -11.3125 Z M 2.40625 -1.171875 "/></g></g></g><g fill="#9b9090" fill-opacity="1"><g transform="translate(55.692459, 96.058371)"><g><path d="M 2.421875 -9.84375 C 2.566406 -9.707031 2.640625 -9.535156 2.640625 -9.328125 C 2.640625 -9.117188 2.566406 -8.941406 2.421875 -8.796875 C 2.285156 -8.660156 2.113281 -8.59375 1.90625 -8.59375 C 1.695312 -8.59375 1.519531 -8.660156 1.375 -8.796875 C 1.238281 -8.941406 1.171875 -9.117188 1.171875 -9.328125 C 1.171875 -9.535156 1.238281 -9.707031 1.375 -9.84375 C 1.519531 -9.988281 1.695312 -10.0625 1.90625 -10.0625 C 2.113281 -10.0625 2.285156 -9.988281 2.421875 -9.84375 Z M 2.5 0 L 1.328125 0 L 1.328125 -7.328125 L 2.5 -7.328125 Z M 2.5 0 "/></g></g></g><g fill="#9b9090" fill-opacity="1"><g transform="translate(59.501788, 96.058371)"><g><path d="M 2.40625 0 L 1.25 0 L 1.25 -12.484375 L 2.40625 -12.484375 L 2.40625 -6.0625 C 2.65625 -6.46875 2.96875 -6.804688 3.34375 -7.078125 C 3.738281 -7.335938 4.195312 -7.46875 4.71875 -7.46875 C 5.25 -7.46875 5.671875 -7.394531 5.984375 -7.25 C 6.304688 -7.09375 6.582031 -6.890625 6.8125 -6.640625 C 7.25 -6.117188 7.46875 -5.429688 7.46875 -4.578125 L 7.46875 0 L 6.3125 0 L 6.3125 -4.578125 C 6.3125 -5.054688 6.203125 -5.46875 5.984375 -5.8125 C 5.765625 -6.144531 5.40625 -6.3125 4.90625 -6.3125 C 4.40625 -6.3125 4 -6.234375 3.6875 -6.078125 C 3.382812 -5.910156 3.140625 -5.679688 2.953125 -5.390625 C 2.585938 -4.859375 2.40625 -4.082031 2.40625 -3.0625 Z M 2.40625 0 "/></g></g></g><g fill="#9b9090" fill-opacity="1"><g transform="translate(67.968816, 96.058371)"><g><path d="M 7.078125 -3.65625 C 7.078125 -4.363281 6.832031 -4.988281 6.34375 -5.53125 C 5.84375 -6.0625 5.226562 -6.328125 4.5 -6.328125 C 3.757812 -6.328125 3.144531 -6.0625 2.65625 -5.53125 C 2.15625 -4.988281 1.90625 -4.363281 1.90625 -3.65625 C 1.90625 -2.945312 2.15625 -2.328125 2.65625 -1.796875 C 3.144531 -1.265625 3.757812 -1 4.5 -1 C 5.226562 -1 5.84375 -1.265625 6.34375 -1.796875 C 6.832031 -2.328125 7.078125 -2.945312 7.078125 -3.65625 Z M 8.234375 0 L 7.078125 0 L 7.078125 -1.25 C 7.003906 -1.15625 6.9375 -1.070312 6.875 -1 C 6.175781 -0.21875 5.320312 0.171875 4.3125 0.171875 C 3.300781 0.171875 2.453125 -0.21875 1.765625 -1 C 1.085938 -1.75 0.75 -2.632812 0.75 -3.65625 C 0.75 -4.675781 1.085938 -5.566406 1.765625 -6.328125 C 2.453125 -7.097656 3.300781 -7.484375 4.3125 -7.484375 C 5.320312 -7.484375 6.175781 -7.097656 6.875 -6.328125 C 6.9375 -6.242188 7.003906 -6.160156 7.078125 -6.078125 L 7.078125 -7.328125 L 8.234375 -7.328125 Z M 8.234375 0 "/></g></g></g><g fill="#9b9090" fill-opacity="1"><g transform="translate(77.450563, 96.058371)"><g><path d="M 0.328125 -6.234375 L 0.328125 -7.328125 L 2.15625 -7.328125 L 2.15625 -10.171875 L 3.328125 -10.171875 L 3.328125 -7.328125 L 5.140625 -7.328125 L 5.140625 -6.234375 L 3.328125 -6.234375 L 3.328125 0 L 2.15625 0 L 2.15625 -6.234375 Z M 0.328125 -6.234375 "/></g></g></g><g fill="#9b9090" fill-opacity="1"><g transform="translate(20.881211, 113.253781)"><g><path d="M 5.015625 -5.8125 C 4.742188 -6.050781 4.453125 -6.171875 4.140625 -6.171875 C 3.835938 -6.171875 3.582031 -6.085938 3.375 -5.921875 C 3.15625 -5.742188 2.972656 -5.535156 2.828125 -5.296875 C 2.546875 -4.804688 2.40625 -4.257812 2.40625 -3.65625 L 2.40625 0 L 1.25 0 L 1.25 -7.328125 L 2.40625 -7.328125 L 2.40625 -5.8125 L 2.46875 -6.109375 C 2.851562 -7.015625 3.457031 -7.46875 4.28125 -7.46875 C 4.53125 -7.46875 4.773438 -7.421875 5.015625 -7.328125 Z M 5.015625 -5.8125 "/></g></g></g><g fill="#9b9090" fill-opacity="1"><g transform="translate(26.05458, 113.253781)"><g><path d="M 8.40625 -3.828125 L 8.40625 -3.21875 L 1.96875 -3.21875 C 2.070312 -2.582031 2.375 -2.066406 2.875 -1.671875 C 3.382812 -1.253906 3.953125 -1.046875 4.578125 -1.046875 C 4.992188 -1.046875 5.398438 -1.144531 5.796875 -1.34375 C 6.171875 -1.53125 6.484375 -1.796875 6.734375 -2.140625 L 8.078125 -2.140625 C 7.765625 -1.441406 7.296875 -0.894531 6.671875 -0.5 C 6.035156 -0.09375 5.398438 0.109375 4.765625 0.109375 C 4.109375 0.109375 3.550781 0.0078125 3.09375 -0.1875 C 2.625 -0.382812 2.21875 -0.65625 1.875 -1 C 1.125 -1.726562 0.75 -2.625 0.75 -3.6875 C 0.75 -4.75 1.125 -5.65625 1.875 -6.40625 C 2.625 -7.144531 3.523438 -7.515625 4.578125 -7.515625 C 5.597656 -7.515625 6.488281 -7.15625 7.25 -6.4375 C 8.019531 -5.707031 8.40625 -4.835938 8.40625 -3.828125 Z M 7.171875 -4.203125 C 7.035156 -4.828125 6.722656 -5.34375 6.234375 -5.75 C 5.753906 -6.15625 5.203125 -6.359375 4.578125 -6.359375 C 3.617188 -6.359375 2.867188 -5.929688 2.328125 -5.078125 C 2.160156 -4.804688 2.046875 -4.515625 1.984375 -4.203125 Z M 7.171875 -4.203125 "/></g></g></g><g fill="#9b9090" fill-opacity="1"><g transform="translate(35.120465, 113.253781)"><g><path d="M 2.40625 0 L 1.25 0 L 1.25 -12.484375 L 2.40625 -12.484375 L 2.40625 -4.046875 L 5.09375 -7.34375 L 6.640625 -7.34375 L 3.625 -3.78125 L 6.84375 0 L 5.296875 0 L 2.40625 -3.515625 Z M 2.40625 0 "/></g></g></g><g fill="#9b9090" fill-opacity="1"><g transform="translate(42.123646, 113.253781)"><g><path d="M 7.234375 -3.6875 C 7.234375 -4.425781 6.972656 -5.054688 6.453125 -5.578125 C 5.929688 -6.097656 5.304688 -6.359375 4.578125 -6.359375 C 3.847656 -6.359375 3.222656 -6.097656 2.703125 -5.578125 C 2.171875 -5.054688 1.90625 -4.425781 1.90625 -3.6875 C 1.90625 -2.96875 2.171875 -2.347656 2.703125 -1.828125 C 3.222656 -1.304688 3.847656 -1.046875 4.578125 -1.046875 C 5.304688 -1.046875 5.929688 -1.304688 6.453125 -1.828125 C 6.972656 -2.347656 7.234375 -2.96875 7.234375 -3.6875 Z M 8.40625 -3.6875 C 8.40625 -2.625 8.03125 -1.726562 7.28125 -1 C 6.519531 -0.257812 5.617188 0.109375 4.578125 0.109375 C 3.535156 0.109375 2.632812 -0.257812 1.875 -1 C 1.125 -1.726562 0.75 -2.625 0.75 -3.6875 C 0.75 -4.75 1.125 -5.65625 1.875 -6.40625 C 2.625 -7.144531 3.523438 -7.515625 4.578125 -7.515625 C 5.628906 -7.515625 6.53125 -7.144531 7.28125 -6.40625 C 8.03125 -5.65625 8.40625 -4.75 8.40625 -3.6875 Z M 8.40625 -3.6875 "/></g></g></g><g fill="#9b9090" fill-opacity="1"><g transform="translate(51.272705, 113.253781)"><g><path d="M 10.53125 -0.03125 L 10.53125 -4.609375 C 10.53125 -5.359375 10.289062 -5.890625 9.8125 -6.203125 C 9.644531 -6.304688 9.390625 -6.359375 9.046875 -6.359375 C 8.703125 -6.359375 8.382812 -6.257812 8.09375 -6.0625 C 7.789062 -5.851562 7.550781 -5.597656 7.375 -5.296875 C 7.300781 -5.171875 7.238281 -5.035156 7.1875 -4.890625 C 7.1875 -4.804688 7.1875 -4.710938 7.1875 -4.609375 L 7.1875 -0.03125 L 6.03125 -0.03125 L 6.03125 -4.609375 C 6.03125 -5.359375 5.789062 -5.890625 5.3125 -6.203125 C 5.144531 -6.304688 4.890625 -6.359375 4.546875 -6.359375 C 4.203125 -6.359375 3.878906 -6.257812 3.578125 -6.0625 C 3.273438 -5.851562 3.035156 -5.597656 2.859375 -5.296875 C 2.628906 -4.878906 2.476562 -4.375 2.40625 -3.78125 L 2.40625 -0.03125 L 1.25 -0.03125 L 1.25 -7.359375 L 2.40625 -7.359375 L 2.40625 -6.1875 C 2.632812 -6.5625 2.914062 -6.867188 3.25 -7.109375 C 3.625 -7.378906 4.066406 -7.515625 4.578125 -7.515625 C 5.085938 -7.515625 5.5 -7.4375 5.8125 -7.28125 C 6.125 -7.113281 6.382812 -6.898438 6.59375 -6.640625 C 6.695312 -6.484375 6.796875 -6.3125 6.890625 -6.125 C 7.109375 -6.519531 7.394531 -6.847656 7.75 -7.109375 C 8.132812 -7.378906 8.578125 -7.515625 9.078125 -7.515625 C 9.585938 -7.515625 10 -7.4375 10.3125 -7.28125 C 10.625 -7.113281 10.882812 -6.898438 11.09375 -6.640625 C 11.5 -6.117188 11.703125 -5.441406 11.703125 -4.609375 L 11.703125 -0.03125 Z M 10.53125 -0.03125 "/></g></g></g><g fill="#9b9090" fill-opacity="1"><g transform="translate(63.964937, 113.253781)"><g><path d="M 8.40625 -3.828125 L 8.40625 -3.21875 L 1.96875 -3.21875 C 2.070312 -2.582031 2.375 -2.066406 2.875 -1.671875 C 3.382812 -1.253906 3.953125 -1.046875 4.578125 -1.046875 C 4.992188 -1.046875 5.398438 -1.144531 5.796875 -1.34375 C 6.171875 -1.53125 6.484375 -1.796875 6.734375 -2.140625 L 8.078125 -2.140625 C 7.765625 -1.441406 7.296875 -0.894531 6.671875 -0.5 C 6.035156 -0.09375 5.398438 0.109375 4.765625 0.109375 C 4.109375 0.109375 3.550781 0.0078125 3.09375 -0.1875 C 2.625 -0.382812 2.21875 -0.65625 1.875 -1 C 1.125 -1.726562 0.75 -2.625 0.75 -3.6875 C 0.75 -4.75 1.125 -5.65625 1.875 -6.40625 C 2.625 -7.144531 3.523438 -7.515625 4.578125 -7.515625 C 5.597656 -7.515625 6.488281 -7.15625 7.25 -6.4375 C 8.019531 -5.707031 8.40625 -4.835938 8.40625 -3.828125 Z M 7.171875 -4.203125 C 7.035156 -4.828125 6.722656 -5.34375 6.234375 -5.75 C 5.753906 -6.15625 5.203125 -6.359375 4.578125 -6.359375 C 3.617188 -6.359375 2.867188 -5.929688 2.328125 -5.078125 C 2.160156 -4.804688 2.046875 -4.515625 1.984375 -4.203125 Z M 7.171875 -4.203125 "/></g></g></g><g fill="#9b9090" fill-opacity="1"><g transform="translate(73.030821, 113.253781)"><g><path d="M 6.3125 0 L 6.3125 -4.578125 C 6.3125 -5.054688 6.203125 -5.46875 5.984375 -5.8125 C 5.765625 -6.144531 5.40625 -6.3125 4.90625 -6.3125 C 4.40625 -6.3125 4 -6.21875 3.6875 -6.03125 C 3.382812 -5.832031 3.140625 -5.585938 2.953125 -5.296875 C 2.585938 -4.734375 2.40625 -3.988281 2.40625 -3.0625 L 2.40625 0 L 1.25 0 L 1.25 -7.328125 L 2.40625 -7.328125 L 2.40625 -6.0625 C 2.65625 -6.46875 2.96875 -6.804688 3.34375 -7.078125 C 3.738281 -7.335938 4.195312 -7.46875 4.71875 -7.46875 C 5.25 -7.46875 5.671875 -7.394531 5.984375 -7.25 C 6.304688 -7.09375 6.582031 -6.890625 6.8125 -6.640625 C 7.25 -6.117188 7.46875 -5.429688 7.46875 -4.578125 L 7.46875 0 Z M 6.3125 0 "/></g></g></g><g fill="#9b9090" fill-opacity="1"><g transform="translate(81.49785, 113.253781)"><g><path d="M 7.078125 -3.65625 C 7.078125 -4.363281 6.832031 -4.988281 6.34375 -5.53125 C 5.84375 -6.0625 5.226562 -6.328125 4.5 -6.328125 C 3.757812 -6.328125 3.144531 -6.0625 2.65625 -5.53125 C 2.15625 -4.988281 1.90625 -4.363281 1.90625 -3.65625 C 1.90625 -2.945312 2.15625 -2.328125 2.65625 -1.796875 C 3.144531 -1.265625 3.757812 -1 4.5 -1 C 5.226562 -1 5.84375 -1.265625 6.34375 -1.796875 C 6.832031 -2.328125 7.078125 -2.945312 7.078125 -3.65625 Z M 8.234375 0 L 7.078125 0 L 7.078125 -1.25 C 7.003906 -1.15625 6.9375 -1.070312 6.875 -1 C 6.175781 -0.21875 5.320312 0.171875 4.3125 0.171875 C 3.300781 0.171875 2.453125 -0.21875 1.765625 -1 C 1.085938 -1.75 0.75 -2.632812 0.75 -3.65625 C 0.75 -4.675781 1.085938 -5.566406 1.765625 -6.328125 C 2.453125 -7.097656 3.300781 -7.484375 4.3125 -7.484375 C 5.320312 -7.484375 6.175781 -7.097656 6.875 -6.328125 C 6.9375 -6.242188 7.003906 -6.160156 7.078125 -6.078125 L 7.078125 -12.484375 L 8.234375 -12.484375 Z M 8.234375 0 "/></g></g></g><g fill="#9b9090" fill-opacity="1"><g transform="translate(90.979597, 113.253781)"><g><path d="M 7.078125 -3.65625 C 7.078125 -4.363281 6.832031 -4.988281 6.34375 -5.53125 C 5.84375 -6.0625 5.226562 -6.328125 4.5 -6.328125 C 3.757812 -6.328125 3.144531 -6.0625 2.65625 -5.53125 C 2.15625 -4.988281 1.90625 -4.363281 1.90625 -3.65625 C 1.90625 -2.945312 2.15625 -2.328125 2.65625 -1.796875 C 3.144531 -1.265625 3.757812 -1 4.5 -1 C 5.226562 -1 5.84375 -1.265625 6.34375 -1.796875 C 6.832031 -2.328125 7.078125 -2.945312 7.078125 -3.65625 Z M 8.234375 0 L 7.078125 0 L 7.078125 -1.25 C 7.003906 -1.15625 6.9375 -1.070312 6.875 -1 C 6.175781 -0.21875 5.320312 0.171875 4.3125 0.171875 C 3.300781 0.171875 2.453125 -0.21875 1.765625 -1 C 1.085938 -1.75 0.75 -2.632812 0.75 -3.65625 C 0.75 -4.675781 1.085938 -5.566406 1.765625 -6.328125 C 2.453125 -7.097656 3.300781 -7.484375 4.3125 -7.484375 C 5.320312 -7.484375 6.175781 -7.097656 6.875 -6.328125 C 6.9375 -6.242188 7.003906 -6.160156 7.078125 -6.078125 L 7.078125 -7.328125 L 8.234375 -7.328125 Z M 8.234375 0 "/></g></g></g><g fill="#9b9090" fill-opacity="1"><g transform="translate(100.461344, 113.253781)"><g><path d="M 2.3125 -1.046875 C 2.601562 -0.847656 2.976562 -0.75 3.4375 -0.75 C 4.507812 -0.75 5.046875 -1.148438 5.046875 -1.953125 C 5.046875 -2.410156 4.660156 -2.765625 3.890625 -3.015625 C 3.566406 -3.117188 3.222656 -3.21875 2.859375 -3.3125 C 2.484375 -3.394531 2.132812 -3.507812 1.8125 -3.65625 C 1.4375 -3.832031 1.15625 -4.054688 0.96875 -4.328125 C 0.78125 -4.585938 0.6875 -4.90625 0.6875 -5.28125 C 0.6875 -6.007812 0.941406 -6.554688 1.453125 -6.921875 C 1.960938 -7.296875 2.570312 -7.484375 3.28125 -7.484375 C 3.988281 -7.484375 4.578125 -7.34375 5.046875 -7.0625 C 5.503906 -6.769531 5.816406 -6.253906 5.984375 -5.515625 L 4.75 -5.515625 C 4.613281 -5.921875 4.414062 -6.191406 4.15625 -6.328125 C 3.914062 -6.453125 3.613281 -6.515625 3.25 -6.515625 C 2.882812 -6.515625 2.570312 -6.441406 2.3125 -6.296875 C 2.039062 -6.128906 1.90625 -5.882812 1.90625 -5.5625 C 1.90625 -5.226562 2.019531 -4.984375 2.25 -4.828125 C 2.457031 -4.679688 2.722656 -4.550781 3.046875 -4.4375 C 3.367188 -4.34375 3.71875 -4.253906 4.09375 -4.171875 C 4.457031 -4.085938 4.804688 -3.96875 5.140625 -3.8125 C 5.898438 -3.457031 6.28125 -2.882812 6.28125 -2.09375 C 6.28125 -1.3125 5.992188 -0.726562 5.421875 -0.34375 C 5.140625 -0.15625 4.820312 -0.015625 4.46875 0.078125 C 4.144531 0.171875 3.78125 0.21875 3.375 0.21875 C 1.675781 0.21875 0.703125 -0.535156 0.453125 -2.046875 L 1.6875 -2.046875 C 1.800781 -1.566406 2.007812 -1.234375 2.3125 -1.046875 Z M 2.3125 -1.046875 "/></g></g></g><g fill="#9b9090" fill-opacity="1"><g transform="translate(107.14847, 113.253781)"><g><path d="M 2.421875 -9.84375 C 2.566406 -9.707031 2.640625 -9.535156 2.640625 -9.328125 C 2.640625 -9.117188 2.566406 -8.941406 2.421875 -8.796875 C 2.285156 -8.660156 2.113281 -8.59375 1.90625 -8.59375 C 1.695312 -8.59375 1.519531 -8.660156 1.375 -8.796875 C 1.238281 -8.941406 1.171875 -9.117188 1.171875 -9.328125 C 1.171875 -9.535156 1.238281 -9.707031 1.375 -9.84375 C 1.519531 -9.988281 1.695312 -10.0625 1.90625 -10.0625 C 2.113281 -10.0625 2.285156 -9.988281 2.421875 -9.84375 Z M 2.5 0 L 1.328125 0 L 1.328125 -7.328125 L 2.5 -7.328125 Z M 2.5 0 "/></g></g></g><g fill="#9b9090" fill-opacity="1"><g transform="translate(23.135773, 130.449192)"><g><path d="M 10.53125 -0.03125 L 10.53125 -4.609375 C 10.53125 -5.359375 10.289062 -5.890625 9.8125 -6.203125 C 9.644531 -6.304688 9.390625 -6.359375 9.046875 -6.359375 C 8.703125 -6.359375 8.382812 -6.257812 8.09375 -6.0625 C 7.789062 -5.851562 7.550781 -5.597656 7.375 -5.296875 C 7.300781 -5.171875 7.238281 -5.035156 7.1875 -4.890625 C 7.1875 -4.804688 7.1875 -4.710938 7.1875 -4.609375 L 7.1875 -0.03125 L 6.03125 -0.03125 L 6.03125 -4.609375 C 6.03125 -5.359375 5.789062 -5.890625 5.3125 -6.203125 C 5.144531 -6.304688 4.890625 -6.359375 4.546875 -6.359375 C 4.203125 -6.359375 3.878906 -6.257812 3.578125 -6.0625 C 3.273438 -5.851562 3.035156 -5.597656 2.859375 -5.296875 C 2.628906 -4.878906 2.476562 -4.375 2.40625 -3.78125 L 2.40625 -0.03125 L 1.25 -0.03125 L 1.25 -7.359375 L 2.40625 -7.359375 L 2.40625 -6.1875 C 2.632812 -6.5625 2.914062 -6.867188 3.25 -7.109375 C 3.625 -7.378906 4.066406 -7.515625 4.578125 -7.515625 C 5.085938 -7.515625 5.5 -7.4375 5.8125 -7.28125 C 6.125 -7.113281 6.382812 -6.898438 6.59375 -6.640625 C 6.695312 -6.484375 6.796875 -6.3125 6.890625 -6.125 C 7.109375 -6.519531 7.394531 -6.847656 7.75 -7.109375 C 8.132812 -7.378906 8.578125 -7.515625 9.078125 -7.515625 C 9.585938 -7.515625 10 -7.4375 10.3125 -7.28125 C 10.625 -7.113281 10.882812 -6.898438 11.09375 -6.640625 C 11.5 -6.117188 11.703125 -5.441406 11.703125 -4.609375 L 11.703125 -0.03125 Z M 10.53125 -0.03125 "/></g></g></g><g fill="#9b9090" fill-opacity="1"><g transform="translate(35.828004, 130.449192)"><g><path d="M 8.40625 -3.828125 L 8.40625 -3.21875 L 1.96875 -3.21875 C 2.070312 -2.582031 2.375 -2.066406 2.875 -1.671875 C 3.382812 -1.253906 3.953125 -1.046875 4.578125 -1.046875 C 4.992188 -1.046875 5.398438 -1.144531 5.796875 -1.34375 C 6.171875 -1.53125 6.484375 -1.796875 6.734375 -2.140625 L 8.078125 -2.140625 C 7.765625 -1.441406 7.296875 -0.894531 6.671875 -0.5 C 6.035156 -0.09375 5.398438 0.109375 4.765625 0.109375 C 4.109375 0.109375 3.550781 0.0078125 3.09375 -0.1875 C 2.625 -0.382812 2.21875 -0.65625 1.875 -1 C 1.125 -1.726562 0.75 -2.625 0.75 -3.6875 C 0.75 -4.75 1.125 -5.65625 1.875 -6.40625 C 2.625 -7.144531 3.523438 -7.515625 4.578125 -7.515625 C 5.597656 -7.515625 6.488281 -7.15625 7.25 -6.4375 C 8.019531 -5.707031 8.40625 -4.835938 8.40625 -3.828125 Z M 7.171875 -4.203125 C 7.035156 -4.828125 6.722656 -5.34375 6.234375 -5.75 C 5.753906 -6.15625 5.203125 -6.359375 4.578125 -6.359375 C 3.617188 -6.359375 2.867188 -5.929688 2.328125 -5.078125 C 2.160156 -4.804688 2.046875 -4.515625 1.984375 -4.203125 Z M 7.171875 -4.203125 "/></g></g></g><g fill="#9b9090" fill-opacity="1"><g transform="translate(44.893889, 130.449192)"><g><path d="M 6.3125 0 L 6.3125 -4.578125 C 6.3125 -5.054688 6.203125 -5.46875 5.984375 -5.8125 C 5.765625 -6.144531 5.40625 -6.3125 4.90625 -6.3125 C 4.40625 -6.3125 4 -6.21875 3.6875 -6.03125 C 3.382812 -5.832031 3.140625 -5.585938 2.953125 -5.296875 C 2.585938 -4.734375 2.40625 -3.988281 2.40625 -3.0625 L 2.40625 0 L 1.25 0 L 1.25 -7.328125 L 2.40625 -7.328125 L 2.40625 -6.0625 C 2.65625 -6.46875 2.96875 -6.804688 3.34375 -7.078125 C 3.738281 -7.335938 4.195312 -7.46875 4.71875 -7.46875 C 5.25 -7.46875 5.671875 -7.394531 5.984375 -7.25 C 6.304688 -7.09375 6.582031 -6.890625 6.8125 -6.640625 C 7.25 -6.117188 7.46875 -5.429688 7.46875 -4.578125 L 7.46875 0 Z M 6.3125 0 "/></g></g></g><g fill="#9b9090" fill-opacity="1"><g transform="translate(53.360917, 130.449192)"><g><path d="M 6.3125 -1.25 C 5.757812 -0.3125 4.941406 0.15625 3.859375 0.15625 C 3.035156 0.15625 2.394531 -0.117188 1.9375 -0.671875 C 1.476562 -1.210938 1.25 -1.90625 1.25 -2.75 L 1.25 -7.328125 L 2.40625 -7.328125 L 2.40625 -2.75 C 2.40625 -2.269531 2.519531 -1.863281 2.75 -1.53125 C 2.957031 -1.1875 3.3125 -1.015625 3.8125 -1.015625 C 4.71875 -1.015625 5.359375 -1.300781 5.734375 -1.875 C 6.117188 -2.445312 6.3125 -3.242188 6.3125 -4.265625 L 6.3125 -7.328125 L 7.46875 -7.328125 L 7.46875 0 L 6.3125 0 Z M 6.3125 -1.25 "/></g></g></g><g fill="#9b9090" fill-opacity="1"><g transform="translate(61.837128, 130.449192)"><g/></g></g><g fill="#9b9090" fill-opacity="1"><g transform="translate(66.328478, 130.449192)"><g/></g></g><g fill="#9b9090" fill-opacity="1"><g transform="translate(70.820329, 130.449192)"><g><path d="M 6.3125 -1.25 C 5.757812 -0.3125 4.941406 0.15625 3.859375 0.15625 C 3.035156 0.15625 2.394531 -0.117188 1.9375 -0.671875 C 1.476562 -1.210938 1.25 -1.90625 1.25 -2.75 L 1.25 -7.328125 L 2.40625 -7.328125 L 2.40625 -2.75 C 2.40625 -2.269531 2.519531 -1.863281 2.75 -1.53125 C 2.957031 -1.1875 3.3125 -1.015625 3.8125 -1.015625 C 4.71875 -1.015625 5.359375 -1.300781 5.734375 -1.875 C 6.117188 -2.445312 6.3125 -3.242188 6.3125 -4.265625 L 6.3125 -7.328125 L 7.46875 -7.328125 L 7.46875 0 L 6.3125 0 Z M 6.3125 -1.25 "/></g></g></g><g fill="#9b9090" fill-opacity="1"><g transform="translate(79.287357, 130.449192)"><g><path d="M 6.3125 0 L 6.3125 -4.578125 C 6.3125 -5.054688 6.203125 -5.46875 5.984375 -5.8125 C 5.765625 -6.144531 5.40625 -6.3125 4.90625 -6.3125 C 4.40625 -6.3125 4 -6.21875 3.6875 -6.03125 C 3.382812 -5.832031 3.140625 -5.585938 2.953125 -5.296875 C 2.585938 -4.734375 2.40625 -3.988281 2.40625 -3.0625 L 2.40625 0 L 1.25 0 L 1.25 -7.328125 L 2.40625 -7.328125 L 2.40625 -6.0625 C 2.65625 -6.46875 2.96875 -6.804688 3.34375 -7.078125 C 3.738281 -7.335938 4.195312 -7.46875 4.71875 -7.46875 C 5.25 -7.46875 5.671875 -7.394531 5.984375 -7.25 C 6.304688 -7.09375 6.582031 -6.890625 6.8125 -6.640625 C 7.25 -6.117188 7.46875 -5.429688 7.46875 -4.578125 L 7.46875 0 Z M 6.3125 0 "/></g></g></g><g fill="#9b9090" fill-opacity="1"><g transform="translate(87.754385, 130.449192)"><g><path d="M 0.328125 -6.234375 L 0.328125 -7.328125 L 2.15625 -7.328125 L 2.15625 -10.171875 L 3.328125 -10.171875 L 3.328125 -7.328125 L 5.140625 -7.328125 L 5.140625 -6.234375 L 3.328125 -6.234375 L 3.328125 0 L 2.15625 0 L 2.15625 -6.234375 Z M 0.328125 -6.234375 "/></g></g></g><g fill="#9b9090" fill-opacity="1"><g transform="translate(93.227188, 130.449192)"><g><path d="M 6.3125 -1.25 C 5.757812 -0.3125 4.941406 0.15625 3.859375 0.15625 C 3.035156 0.15625 2.394531 -0.117188 1.9375 -0.671875 C 1.476562 -1.210938 1.25 -1.90625 1.25 -2.75 L 1.25 -7.328125 L 2.40625 -7.328125 L 2.40625 -2.75 C 2.40625 -2.269531 2.519531 -1.863281 2.75 -1.53125 C 2.957031 -1.1875 3.3125 -1.015625 3.8125 -1.015625 C 4.71875 -1.015625 5.359375 -1.300781 5.734375 -1.875 C 6.117188 -2.445312 6.3125 -3.242188 6.3125 -4.265625 L 6.3125 -7.328125 L 7.46875 -7.328125 L 7.46875 0 L 6.3125 0 Z M 6.3125 -1.25 "/></g></g></g><g fill="#9b9090" fill-opacity="1"><g transform="translate(101.694216, 130.449192)"><g><path d="M 2.40625 0 L 1.25 0 L 1.25 -12.484375 L 2.40625 -12.484375 L 2.40625 -4.046875 L 5.09375 -7.34375 L 6.640625 -7.34375 L 3.625 -3.78125 L 6.84375 0 L 5.296875 0 L 2.40625 -3.515625 Z M 2.40625 0 "/></g></g></g><g fill="#9b9090" fill-opacity="1"><g transform="translate(49.559699, 147.644603)"><g><path d="M 2.3125 -1.046875 C 2.601562 -0.847656 2.976562 -0.75 3.4375 -0.75 C 4.507812 -0.75 5.046875 -1.148438 5.046875 -1.953125 C 5.046875 -2.410156 4.660156 -2.765625 3.890625 -3.015625 C 3.566406 -3.117188 3.222656 -3.21875 2.859375 -3.3125 C 2.484375 -3.394531 2.132812 -3.507812 1.8125 -3.65625 C 1.4375 -3.832031 1.15625 -4.054688 0.96875 -4.328125 C 0.78125 -4.585938 0.6875 -4.90625 0.6875 -5.28125 C 0.6875 -6.007812 0.941406 -6.554688 1.453125 -6.921875 C 1.960938 -7.296875 2.570312 -7.484375 3.28125 -7.484375 C 3.988281 -7.484375 4.578125 -7.34375 5.046875 -7.0625 C 5.503906 -6.769531 5.816406 -6.253906 5.984375 -5.515625 L 4.75 -5.515625 C 4.613281 -5.921875 4.414062 -6.191406 4.15625 -6.328125 C 3.914062 -6.453125 3.613281 -6.515625 3.25 -6.515625 C 2.882812 -6.515625 2.570312 -6.441406 2.3125 -6.296875 C 2.039062 -6.128906 1.90625 -5.882812 1.90625 -5.5625 C 1.90625 -5.226562 2.019531 -4.984375 2.25 -4.828125 C 2.457031 -4.679688 2.722656 -4.550781 3.046875 -4.4375 C 3.367188 -4.34375 3.71875 -4.253906 4.09375 -4.171875 C 4.457031 -4.085938 4.804688 -3.96875 5.140625 -3.8125 C 5.898438 -3.457031 6.28125 -2.882812 6.28125 -2.09375 C 6.28125 -1.3125 5.992188 -0.726562 5.421875 -0.34375 C 5.140625 -0.15625 4.820312 -0.015625 4.46875 0.078125 C 4.144531 0.171875 3.78125 0.21875 3.375 0.21875 C 1.675781 0.21875 0.703125 -0.535156 0.453125 -2.046875 L 1.6875 -2.046875 C 1.800781 -1.566406 2.007812 -1.234375 2.3125 -1.046875 Z M 2.3125 -1.046875 "/></g></g></g><g fill="#9b9090" fill-opacity="1"><g transform="translate(56.246824, 147.644603)"><g><path d="M 7.078125 -3.65625 C 7.078125 -4.363281 6.832031 -4.988281 6.34375 -5.53125 C 5.84375 -6.0625 5.226562 -6.328125 4.5 -6.328125 C 3.757812 -6.328125 3.144531 -6.0625 2.65625 -5.53125 C 2.15625 -4.988281 1.90625 -4.363281 1.90625 -3.65625 C 1.90625 -2.945312 2.15625 -2.328125 2.65625 -1.796875 C 3.144531 -1.265625 3.757812 -1 4.5 -1 C 5.226562 -1 5.84375 -1.265625 6.34375 -1.796875 C 6.832031 -2.328125 7.078125 -2.945312 7.078125 -3.65625 Z M 8.234375 0 L 7.078125 0 L 7.078125 -1.25 C 7.003906 -1.15625 6.9375 -1.070312 6.875 -1 C 6.175781 -0.21875 5.320312 0.171875 4.3125 0.171875 C 3.300781 0.171875 2.453125 -0.21875 1.765625 -1 C 1.085938 -1.75 0.75 -2.632812 0.75 -3.65625 C 0.75 -4.675781 1.085938 -5.566406 1.765625 -6.328125 C 2.453125 -7.097656 3.300781 -7.484375 4.3125 -7.484375 C 5.320312 -7.484375 6.175781 -7.097656 6.875 -6.328125 C 6.9375 -6.242188 7.003906 -6.160156 7.078125 -6.078125 L 7.078125 -7.328125 L 8.234375 -7.328125 Z M 8.234375 0 "/></g></g></g><g fill="#9b9090" fill-opacity="1"><g transform="translate(65.728572, 147.644603)"><g><path d="M 2.1875 4.15625 L 0.765625 4.15625 L 3.234375 -1.203125 L 0.171875 -7.328125 L 1.5 -7.328125 L 3.84375 -2.40625 L 5.9375 -7.328125 L 7.234375 -7.328125 Z M 2.1875 4.15625 "/></g></g></g><g fill="#9b9090" fill-opacity="1"><g transform="translate(72.798295, 147.644603)"><g><path d="M 7.078125 -3.65625 C 7.078125 -4.363281 6.832031 -4.988281 6.34375 -5.53125 C 5.84375 -6.0625 5.226562 -6.328125 4.5 -6.328125 C 3.757812 -6.328125 3.144531 -6.0625 2.65625 -5.53125 C 2.15625 -4.988281 1.90625 -4.363281 1.90625 -3.65625 C 1.90625 -2.945312 2.15625 -2.328125 2.65625 -1.796875 C 3.144531 -1.265625 3.757812 -1 4.5 -1 C 5.226562 -1 5.84375 -1.265625 6.34375 -1.796875 C 6.832031 -2.328125 7.078125 -2.945312 7.078125 -3.65625 Z M 8.234375 0 L 7.078125 0 L 7.078125 -1.25 C 7.003906 -1.15625 6.9375 -1.070312 6.875 -1 C 6.175781 -0.21875 5.320312 0.171875 4.3125 0.171875 C 3.300781 0.171875 2.453125 -0.21875 1.765625 -1 C 1.085938 -1.75 0.75 -2.632812 0.75 -3.65625 C 0.75 -4.675781 1.085938 -5.566406 1.765625 -6.328125 C 2.453125 -7.097656 3.300781 -7.484375 4.3125 -7.484375 C 5.320312 -7.484375 6.175781 -7.097656 6.875 -6.328125 C 6.9375 -6.242188 7.003906 -6.160156 7.078125 -6.078125 L 7.078125 -7.328125 L 8.234375 -7.328125 Z M 8.234375 0 "/></g></g></g></svg>