<svg xmlns="http://www.w3.org/2000/svg" xmlns:xlink="http://www.w3.org/1999/xlink" width="500" zoomAndPan="magnify" viewBox="0 0 375 374.999991" height="500" preserveAspectRatio="xMidYMid meet" version="1.0"><defs><g/><clipPath id="90bf6cba3b"><path d="M 96 136.753906 L 186.625 136.753906 L 186.625 160 L 96 160 Z M 96 136.753906 " clip-rule="nonzero"/></clipPath><clipPath id="211a6f0647"><path d="M 121 164 L 186.625 164 L 186.625 185 L 121 185 Z M 121 164 " clip-rule="nonzero"/></clipPath><clipPath id="9809f03714"><path d="M 77.105469 179 L 186.625 179 L 186.625 203 L 77.105469 203 Z M 77.105469 179 " clip-rule="nonzero"/></clipPath><clipPath id="e621fe0c29"><path d="M 101 206 L 186.625 206 L 186.625 230.136719 L 101 230.136719 Z M 101 206 " clip-rule="nonzero"/></clipPath><clipPath id="468078d09a"><path d="M 107.390625 61.152344 L 297.480469 61.152344 L 297.480469 243.304688 L 107.390625 243.304688 Z M 107.390625 61.152344 " clip-rule="nonzero"/></clipPath></defs><rect x="-37.5" width="450" fill="#ffffff" y="-37.499999" height="449.999989" fill-opacity="1"/><rect x="-37.5" width="450" fill="#ffffff" y="-37.499999" height="449.999989" fill-opacity="1"/><g clip-path="url(#90bf6cba3b)"><path fill="#d33333" d="M 107 157.257812 C 112.152344 157.257812 116.390625 153.421875 117.078125 148.441406 L 134.488281 148.441406 L 141.933594 159.207031 C 142.21875 159.605469 142.621094 159.777344 143.078125 159.777344 L 185.289062 159.777344 C 186.03125 159.777344 186.664062 159.148438 186.664062 158.40625 C 186.664062 157.660156 186.03125 157.03125 185.289062 157.03125 L 143.765625 157.03125 L 136.320312 146.261719 C 136.035156 145.863281 135.632812 145.691406 135.175781 145.691406 L 117.023438 145.691406 C 116.335938 140.707031 112.097656 136.871094 106.941406 136.871094 C 101.328125 136.871094 96.746094 141.453125 96.746094 147.066406 C 96.746094 152.675781 101.386719 157.257812 107 157.257812 Z M 107 139.675781 C 111.066406 139.675781 114.386719 143 114.386719 147.066406 C 114.386719 151.132812 111.066406 154.453125 107 154.453125 C 102.933594 154.453125 99.613281 151.132812 99.613281 147.066406 C 99.613281 143 102.875 139.675781 107 139.675781 Z M 107 139.675781 " fill-opacity="1" fill-rule="nonzero"/></g><g clip-path="url(#211a6f0647)"><path fill="#d33333" d="M 185.289062 172.953125 L 141.363281 172.953125 C 140.675781 167.96875 136.4375 164.132812 131.28125 164.132812 C 125.667969 164.132812 121.085938 168.714844 121.085938 174.324219 C 121.085938 179.9375 125.667969 184.519531 131.28125 184.519531 C 136.4375 184.519531 140.675781 180.683594 141.363281 175.699219 L 185.289062 175.699219 C 186.03125 175.699219 186.664062 175.070312 186.664062 174.324219 C 186.664062 173.582031 186.03125 172.953125 185.289062 172.953125 Z M 131.28125 181.769531 C 127.214844 181.769531 123.894531 178.449219 123.894531 174.382812 C 123.894531 170.316406 127.214844 166.9375 131.28125 166.9375 C 135.347656 166.9375 138.667969 170.257812 138.667969 174.324219 C 138.667969 178.449219 135.347656 181.769531 131.28125 181.769531 Z M 131.28125 181.769531 " fill-opacity="1" fill-rule="nonzero"/></g><g clip-path="url(#9809f03714)"><path fill="#d33333" d="M 185.289062 190.589844 L 146.972656 190.589844 C 146.515625 190.589844 146.058594 190.820312 145.769531 191.21875 L 140.386719 199.8125 L 116.792969 199.8125 L 110.949219 188.929688 C 110.722656 188.472656 110.265625 188.183594 109.75 188.183594 L 97.378906 188.183594 C 96.691406 183.203125 92.453125 179.367188 87.296875 179.367188 C 81.6875 179.367188 77.105469 183.945312 77.105469 189.558594 C 77.105469 195.171875 81.6875 199.753906 87.296875 199.753906 C 92.453125 199.753906 96.691406 195.917969 97.378906 190.933594 L 108.890625 190.933594 L 114.730469 201.816406 C 114.960938 202.273438 115.417969 202.558594 115.933594 202.558594 L 141.132812 202.558594 C 141.589844 202.558594 142.046875 202.332031 142.335938 201.929688 L 147.71875 193.339844 L 185.230469 193.339844 C 185.976562 193.339844 186.605469 192.710938 186.605469 191.964844 C 186.664062 191.21875 186.03125 190.589844 185.289062 190.589844 Z M 87.296875 197.0625 C 83.230469 197.0625 79.910156 193.742188 79.910156 189.675781 C 79.910156 185.609375 83.230469 182.285156 87.296875 182.285156 C 91.363281 182.285156 94.6875 185.609375 94.6875 189.675781 C 94.742188 193.742188 91.421875 197.0625 87.296875 197.0625 Z M 87.296875 197.0625 " fill-opacity="1" fill-rule="nonzero"/></g><g clip-path="url(#e621fe0c29)"><path fill="#d33333" d="M 185.289062 206.796875 L 163.179688 206.796875 C 162.667969 206.796875 162.207031 207.085938 161.980469 207.484375 L 155.449219 218.59375 L 122.117188 218.59375 C 121.429688 213.613281 117.195312 209.777344 112.039062 209.777344 C 106.425781 209.777344 101.84375 214.359375 101.84375 219.96875 C 101.84375 225.582031 106.425781 230.164062 112.039062 230.164062 C 117.195312 230.164062 121.429688 226.328125 122.117188 221.34375 L 156.25 221.34375 C 156.765625 221.34375 157.226562 221.058594 157.453125 220.65625 L 163.984375 209.546875 L 185.289062 209.546875 C 186.03125 209.546875 186.664062 208.917969 186.664062 208.171875 C 186.664062 207.429688 186.03125 206.796875 185.289062 206.796875 Z M 112.039062 227.414062 C 107.972656 227.414062 104.652344 224.09375 104.652344 220.027344 C 104.652344 215.960938 107.972656 212.640625 112.039062 212.640625 C 116.105469 212.640625 119.425781 215.960938 119.425781 220.027344 C 119.484375 224.09375 116.164062 227.414062 112.039062 227.414062 Z M 112.039062 227.414062 " fill-opacity="1" fill-rule="nonzero"/></g><g clip-path="url(#468078d09a)"><path fill="#000000" d="M 290.492188 67.125 C 270.089844 49.914062 201.488281 88.726562 221.691406 124.925781 C 223.683594 128.519531 223.292969 132.925781 220.492188 135.726562 C 215.683594 140.925781 210.484375 146.121094 204.679688 151.925781 L 194.6875 141.921875 C 192.089844 139.320312 191.28125 135.320312 192.679688 132.117188 C 198.082031 119.324219 195.28125 103.714844 184.480469 93.316406 L 152.480469 62.316406 C 150.878906 60.914062 148.484375 60.714844 146.878906 62.113281 C 145.089844 63.71875 144.886719 66.519531 146.492188 68.324219 L 176.683594 99.714844 C 178.285156 101.519531 178.285156 104.320312 176.292969 105.925781 L 175.890625 106.328125 C 174.082031 107.730469 171.6875 107.527344 170.082031 105.925781 L 140.078125 73.117188 C 138.492188 71.515625 136.078125 71.3125 134.289062 72.710938 L 133.886719 72.914062 C 132.078125 74.519531 131.875 77.117188 133.480469 78.921875 L 162.085938 112.117188 C 163.6875 113.921875 163.484375 116.523438 161.679688 118.125 L 161.492188 118.328125 C 159.6875 119.914062 157.089844 119.527344 155.484375 117.71875 L 127.691406 83.714844 C 126.289062 81.925781 123.488281 81.722656 121.683594 83.125 L 121.277344 83.328125 C 119.488281 84.726562 119.289062 87.328125 120.6875 89.117188 L 147.890625 124.320312 C 149.292969 126.125 148.886719 128.722656 147.285156 130.125 L 146.878906 130.527344 C 145.089844 132.117188 142.289062 131.726562 140.6875 129.71875 L 115.085938 94.71875 C 113.683594 92.726562 110.882812 92.320312 108.890625 93.925781 C 107.289062 95.324219 106.882812 97.722656 108.082031 99.527344 L 133.683594 137.3125 C 141.882812 149.515625 156.480469 154.527344 169.882812 151.320312 C 173.492188 150.527344 177.289062 151.925781 179.484375 154.914062 C 182.488281 159.117188 185.492188 163.320312 188.679688 167.925781 C 180.292969 176.515625 171.078125 186.320312 161.492188 197.710938 C 134.878906 229.523438 139.894531 237.523438 144.28125 241.117188 C 148.683594 244.710938 157.496094 248.527344 184.089844 216.714844 C 191.886719 207.316406 198.6875 198.523438 204.679688 190.320312 C 210.6875 198.523438 217.285156 207.113281 225.082031 216.328125 C 251.695312 248.324219 260.488281 244.730469 264.894531 240.914062 C 269.28125 237.320312 274.480469 229.320312 247.679688 197.527344 C 238.078125 186.117188 229.082031 176.3125 220.679688 167.925781 C 225.691406 160.71875 230.28125 154.121094 234.886719 148.113281 C 237.285156 144.925781 241.484375 143.726562 245.484375 145.125 C 284.484375 158.324219 310.695312 84.324219 290.492188 67.125 " fill-opacity="1" fill-rule="nonzero"/></g><path stroke-linecap="butt" transform="matrix(0.419437, 0, 0, 0.419437, 16.182449, 257.643499)" fill="none" stroke-linejoin="miter" d="M 190.818352 41.985809 C 198.557519 41.985809 204.722775 44.332705 209.304809 49.026495 C 213.896155 53.720286 216.187172 60.239439 216.187172 68.583956 L 216.187172 104.998085 L 197.197809 104.998085 L 197.197809 71.145052 C 197.197809 67.131116 196.136119 64.020548 194.003424 61.822662 C 191.880043 59.615463 188.946424 58.51652 185.221193 58.51652 C 181.514589 58.51652 178.590283 59.615463 176.466901 61.822662 C 174.334207 64.020548 173.272516 67.131116 173.272516 71.145052 L 173.272516 104.998085 L 154.292466 104.998085 L 154.292466 71.145052 C 154.292466 67.131116 153.221462 64.020548 151.098081 61.822662 C 148.9747 59.615463 146.050394 58.51652 142.343789 58.51652 C 138.609246 58.51652 135.68494 59.615463 133.561558 61.822662 C 131.428864 64.020548 130.367173 67.131116 130.367173 71.145052 L 130.367173 104.998085 L 111.275366 104.998085 L 111.275366 42.647038 L 130.367173 42.647038 L 130.367173 50.470022 C 132.313606 47.871674 134.846763 45.804171 137.975956 44.276826 C 141.10515 42.749482 144.644119 41.985809 148.592864 41.985809 C 153.277341 41.985809 157.468225 43.000935 161.165517 45.012559 C 164.853495 47.014871 167.740549 49.883298 169.808052 53.608529 C 171.977998 50.172004 174.920931 47.378081 178.646161 45.236073 C 182.380705 43.066126 186.431893 41.985809 190.818352 41.985809 Z M 282.98987 91.140227 L 253.71887 91.140227 L 249.02508 104.998085 L 229.039218 104.998085 L 257.406849 26.572668 L 279.525405 26.572668 L 307.893036 104.998085 L 287.68366 104.998085 Z M 278.081878 76.388314 L 268.3404 47.685412 L 258.738619 76.388314 Z M 340.172159 26.572668 L 340.172159 104.998085 L 321.080352 104.998085 L 321.080352 26.572668 Z M 447.43086 26.572668 L 447.43086 104.998085 L 428.339053 104.998085 L 428.339053 57.976362 L 410.802531 104.998085 L 395.389389 104.998085 L 377.71317 57.836666 L 377.71317 104.998085 L 358.621363 104.998085 L 358.621363 26.572668 L 381.177634 26.572668 L 403.193747 80.85859 L 424.986346 26.572668 Z M 524.515194 72.812092 C 524.515194 74.609516 524.403437 76.472131 524.189236 78.399938 L 480.948622 78.399938 C 481.246641 82.274178 482.48528 85.245049 484.692479 87.293926 C 486.890365 89.33349 489.591157 90.348615 492.785542 90.348615 C 497.553838 90.348615 500.869293 88.346304 502.750534 84.323055 L 523.071667 84.323055 C 522.028602 88.430122 520.147361 92.127413 517.41863 95.396303 C 514.708524 98.674506 511.299938 101.244915 507.192872 103.116843 C 503.104431 104.970145 498.531711 105.901453 493.47471 105.901453 C 487.365332 105.901453 481.926495 104.597622 477.1582 101.999274 C 472.399218 99.382299 468.664674 95.657069 465.973195 90.814269 C 463.300342 85.980782 461.968572 80.309119 461.968572 73.817905 C 461.968572 67.345317 463.281716 61.692279 465.917317 56.858792 C 468.571544 51.997367 472.287461 48.272136 477.046443 45.673788 C 481.814738 43.066126 487.290827 41.771609 493.47471 41.771609 C 499.509584 41.771609 504.873916 43.038187 509.567706 45.562031 C 514.261497 48.085874 517.921536 51.699348 520.557136 56.393139 C 523.192737 61.086929 524.515194 66.553705 524.515194 72.812092 Z M 504.985673 67.792344 C 504.985673 64.523454 503.868103 61.915793 501.623652 59.987986 C 499.388514 58.041553 496.603904 57.072993 493.251196 57.072993 C 490.038185 57.072993 487.32808 58.013614 485.120881 59.885542 C 482.941621 61.738845 481.591225 64.374445 481.060379 67.792344 Z M 535.364928 73.715461 C 535.364928 67.308064 536.575628 61.692279 538.997028 56.858792 C 541.409114 51.997367 544.705944 48.272136 548.868889 45.673788 C 553.05046 43.066126 557.706998 41.771609 562.838503 41.771609 C 567.234275 41.771609 571.089889 42.665664 574.396031 44.444462 C 577.730113 46.223259 580.281896 48.570154 582.060693 51.485147 L 582.060693 42.647038 L 601.161813 42.647038 L 601.161813 104.998085 L 582.060693 104.998085 L 582.060693 96.159975 C 580.188765 99.074968 577.59973 101.431176 574.293587 103.2286 C 570.978132 105.007398 567.122519 105.901453 562.726746 105.901453 C 557.669746 105.901453 553.05046 104.578996 548.868889 101.943396 C 544.705944 99.289169 541.409114 95.526686 538.997028 90.655947 C 536.575628 85.757269 535.364928 80.113544 535.364928 73.715461 Z M 582.060693 73.817905 C 582.060693 69.058923 580.738236 65.305753 578.084009 62.558395 C 575.448409 59.792412 572.226084 58.414076 568.426349 58.414076 C 564.626614 58.414076 561.394977 59.773785 558.74075 62.502517 C 556.105149 65.212622 554.782692 68.947166 554.782692 73.715461 C 554.782692 78.474443 556.105149 82.255552 558.74075 85.058788 C 561.394977 87.843398 564.626614 89.231046 568.426349 89.231046 C 572.226084 89.231046 575.448409 87.862024 578.084009 85.114666 C 580.738236 82.348683 582.060693 78.5862 582.060693 73.817905 Z M 638.693511 22.316592 L 638.693511 104.998085 L 619.592391 104.998085 L 619.592391 22.316592 Z M 682.502222 105.901453 C 677.063386 105.901453 672.220586 104.970145 667.96451 103.116843 C 663.72706 101.244915 660.374353 98.693132 657.897075 95.452181 C 655.438422 92.211231 654.0694 88.579131 653.780695 84.537256 L 672.658301 84.537256 C 672.891128 86.707202 673.89694 88.458061 675.685051 89.808457 C 677.463848 91.14954 679.661734 91.829394 682.278709 91.829394 C 684.662856 91.829394 686.497532 91.363741 687.79205 90.432433 C 689.105194 89.491812 689.757109 88.271799 689.757109 86.781707 C 689.757109 84.993596 688.816488 83.680453 686.94456 82.82365 C 685.091258 81.966847 682.083134 81.016913 677.920189 79.955222 C 673.440599 78.921471 669.715369 77.831841 666.735184 76.686332 C 663.755 75.522198 661.175277 73.696835 659.014644 71.20093 C 656.872636 68.714339 655.792319 65.333692 655.792319 61.086929 C 655.792319 57.520021 656.779505 54.260444 658.744564 51.317512 C 660.72825 48.37458 663.63393 46.046311 667.470917 44.332705 C 671.307905 42.628412 675.871312 41.771609 681.161139 41.771609 C 688.984124 41.771609 695.140067 43.708729 699.62897 47.582968 C 704.145812 51.457208 706.734847 56.588713 707.405389 62.99611 L 689.757109 62.99611 C 689.468404 60.826163 688.509157 59.12187 686.888681 57.864605 C 685.296145 56.588713 683.19139 55.955424 680.593042 55.955424 C 678.357903 55.955424 676.634984 56.383826 675.433597 57.240629 C 674.250837 58.088119 673.664113 59.261566 673.664113 60.751658 C 673.664113 62.539769 674.604734 63.880852 676.504601 64.793534 C 678.413782 65.687589 681.37534 66.572331 685.389276 67.466387 C 690.008562 68.649147 693.780358 69.822595 696.686038 70.986729 C 699.591718 72.132238 702.143501 73.994853 704.322761 76.574575 C 706.520647 79.144984 707.656842 82.58151 707.731347 86.884151 C 707.731347 90.54419 706.706908 93.803767 704.648718 96.681507 C 702.618468 99.549935 699.675535 101.813012 695.838548 103.442801 C 692.00156 105.081902 687.559223 105.901453 682.502222 105.901453 Z M 682.502222 105.901453 " stroke="#820000" stroke-width="29.329124" stroke-opacity="1" stroke-miterlimit="4"/><g fill="#ffffff" fill-opacity="1"><g transform="translate(59.948092, 301.684397)"><g><path d="M 36.265625 -26.421875 C 39.515625 -26.421875 42.097656 -25.4375 44.015625 -23.46875 C 45.941406 -21.507812 46.90625 -18.78125 46.90625 -15.28125 L 46.90625 0 L 38.9375 0 L 38.9375 -14.203125 C 38.9375 -15.890625 38.488281 -17.191406 37.59375 -18.109375 C 36.707031 -19.035156 35.484375 -19.5 33.921875 -19.5 C 32.359375 -19.5 31.128906 -19.035156 30.234375 -18.109375 C 29.347656 -17.191406 28.90625 -15.890625 28.90625 -14.203125 L 28.90625 0 L 20.953125 0 L 20.953125 -14.203125 C 20.953125 -15.890625 20.503906 -17.191406 19.609375 -18.109375 C 18.722656 -19.035156 17.5 -19.5 15.9375 -19.5 C 14.375 -19.5 13.144531 -19.035156 12.25 -18.109375 C 11.363281 -17.191406 10.921875 -15.890625 10.921875 -14.203125 L 10.921875 0 L 2.90625 0 L 2.90625 -26.140625 L 10.921875 -26.140625 L 10.921875 -22.875 C 11.734375 -23.957031 12.796875 -24.816406 14.109375 -25.453125 C 15.421875 -26.097656 16.90625 -26.421875 18.5625 -26.421875 C 20.53125 -26.421875 22.285156 -26 23.828125 -25.15625 C 25.367188 -24.3125 26.578125 -23.113281 27.453125 -21.5625 C 28.359375 -22.988281 29.59375 -24.15625 31.15625 -25.0625 C 32.71875 -25.96875 34.421875 -26.421875 36.265625 -26.421875 Z M 36.265625 -26.421875 "/></g></g></g><g fill="#ffffff" fill-opacity="1"><g transform="translate(111.493135, 301.684397)"><g><path d="M 23.375 -5.8125 L 11.109375 -5.8125 L 9.140625 0 L 0.75 0 L 12.65625 -32.890625 L 21.9375 -32.890625 L 33.828125 0 L 25.34375 0 Z M 21.328125 -12 L 17.25 -24.03125 L 13.21875 -12 Z M 21.328125 -12 "/></g></g></g><g fill="#ffffff" fill-opacity="1"><g transform="translate(147.949598, 301.684397)"><g><path d="M 10.921875 -32.890625 L 10.921875 0 L 2.90625 0 L 2.90625 -32.890625 Z M 10.921875 -32.890625 "/></g></g></g><g fill="#ffffff" fill-opacity="1"><g transform="translate(163.694401, 301.684397)"><g><path d="M 40.15625 -32.890625 L 40.15625 0 L 32.140625 0 L 32.140625 -19.734375 L 24.78125 0 L 18.328125 0 L 10.921875 -19.78125 L 10.921875 0 L 2.90625 0 L 2.90625 -32.890625 L 12.375 -32.890625 L 21.609375 -10.125 L 30.734375 -32.890625 Z M 40.15625 -32.890625 "/></g></g></g><g fill="#ffffff" fill-opacity="1"><g transform="translate(208.632331, 301.684397)"><g><path d="M 27.546875 -13.5 C 27.546875 -12.75 27.5 -11.96875 27.40625 -11.15625 L 9.28125 -11.15625 C 9.40625 -9.53125 9.925781 -8.285156 10.84375 -7.421875 C 11.769531 -6.566406 12.90625 -6.140625 14.25 -6.140625 C 16.25 -6.140625 17.640625 -6.984375 18.421875 -8.671875 L 26.9375 -8.671875 C 26.5 -6.953125 25.710938 -5.40625 24.578125 -4.03125 C 23.441406 -2.65625 22.015625 -1.578125 20.296875 -0.796875 C 18.578125 -0.015625 16.65625 0.375 14.53125 0.375 C 11.96875 0.375 9.6875 -0.171875 7.6875 -1.265625 C 5.6875 -2.359375 4.125 -3.921875 3 -5.953125 C 1.875 -7.984375 1.3125 -10.359375 1.3125 -13.078125 C 1.3125 -15.796875 1.863281 -18.171875 2.96875 -20.203125 C 4.082031 -22.234375 5.640625 -23.789062 7.640625 -24.875 C 9.640625 -25.96875 11.9375 -26.515625 14.53125 -26.515625 C 17.0625 -26.515625 19.304688 -25.984375 21.265625 -24.921875 C 23.234375 -23.859375 24.769531 -22.34375 25.875 -20.375 C 26.988281 -18.414062 27.546875 -16.125 27.546875 -13.5 Z M 19.359375 -15.609375 C 19.359375 -16.984375 18.890625 -18.078125 17.953125 -18.890625 C 17.015625 -19.703125 15.84375 -20.109375 14.4375 -20.109375 C 13.09375 -20.109375 11.957031 -19.71875 11.03125 -18.9375 C 10.113281 -18.15625 9.546875 -17.046875 9.328125 -15.609375 Z M 19.359375 -15.609375 "/></g></g></g><g fill="#ffffff" fill-opacity="1"><g transform="translate(239.41886, 301.684397)"><g><path d="M 1.3125 -13.125 C 1.3125 -15.8125 1.816406 -18.171875 2.828125 -20.203125 C 3.847656 -22.234375 5.234375 -23.789062 6.984375 -24.875 C 8.734375 -25.96875 10.6875 -26.515625 12.84375 -26.515625 C 14.6875 -26.515625 16.300781 -26.140625 17.6875 -25.390625 C 19.082031 -24.640625 20.15625 -23.660156 20.90625 -22.453125 L 20.90625 -26.140625 L 28.90625 -26.140625 L 28.90625 0 L 20.90625 0 L 20.90625 -3.703125 C 20.125 -2.484375 19.035156 -1.5 17.640625 -0.75 C 16.253906 0 14.640625 0.375 12.796875 0.375 C 10.671875 0.375 8.734375 -0.175781 6.984375 -1.28125 C 5.234375 -2.394531 3.847656 -3.972656 2.828125 -6.015625 C 1.816406 -8.066406 1.3125 -10.4375 1.3125 -13.125 Z M 20.90625 -13.078125 C 20.90625 -15.078125 20.347656 -16.65625 19.234375 -17.8125 C 18.128906 -18.96875 16.78125 -19.546875 15.1875 -19.546875 C 13.59375 -19.546875 12.238281 -18.972656 11.125 -17.828125 C 10.019531 -16.691406 9.46875 -15.125 9.46875 -13.125 C 9.46875 -11.125 10.019531 -9.535156 11.125 -8.359375 C 12.238281 -7.191406 13.59375 -6.609375 15.1875 -6.609375 C 16.78125 -6.609375 18.128906 -7.1875 19.234375 -8.34375 C 20.347656 -9.5 20.90625 -11.078125 20.90625 -13.078125 Z M 20.90625 -13.078125 "/></g></g></g><g fill="#ffffff" fill-opacity="1"><g transform="translate(273.1575, 301.684397)"><g><path d="M 10.921875 -34.671875 L 10.921875 0 L 2.90625 0 L 2.90625 -34.671875 Z M 10.921875 -34.671875 "/></g></g></g><g fill="#ffffff" fill-opacity="1"><g transform="translate(288.90229, 301.684397)"><g><path d="M 13.546875 0.375 C 11.265625 0.375 9.234375 -0.015625 7.453125 -0.796875 C 5.671875 -1.578125 4.265625 -2.644531 3.234375 -4 C 2.203125 -5.363281 1.625 -6.890625 1.5 -8.578125 L 9.421875 -8.578125 C 9.515625 -7.671875 9.9375 -6.9375 10.6875 -6.375 C 11.4375 -5.8125 12.359375 -5.53125 13.453125 -5.53125 C 14.453125 -5.53125 15.222656 -5.722656 15.765625 -6.109375 C 16.316406 -6.503906 16.59375 -7.015625 16.59375 -7.640625 C 16.59375 -8.390625 16.203125 -8.941406 15.421875 -9.296875 C 14.640625 -9.660156 13.375 -10.0625 11.625 -10.5 C 9.75 -10.9375 8.1875 -11.394531 6.9375 -11.875 C 5.6875 -12.363281 4.609375 -13.128906 3.703125 -14.171875 C 2.796875 -15.222656 2.34375 -16.640625 2.34375 -18.421875 C 2.34375 -19.921875 2.753906 -21.285156 3.578125 -22.515625 C 4.410156 -23.742188 5.628906 -24.71875 7.234375 -25.4375 C 8.847656 -26.15625 10.765625 -26.515625 12.984375 -26.515625 C 16.265625 -26.515625 18.847656 -25.703125 20.734375 -24.078125 C 22.617188 -22.460938 23.703125 -20.3125 23.984375 -17.625 L 16.59375 -17.625 C 16.46875 -18.53125 16.066406 -19.25 15.390625 -19.78125 C 14.722656 -20.3125 13.84375 -20.578125 12.75 -20.578125 C 11.8125 -20.578125 11.09375 -20.394531 10.59375 -20.03125 C 10.09375 -19.675781 9.84375 -19.1875 9.84375 -18.5625 C 9.84375 -17.8125 10.238281 -17.25 11.03125 -16.875 C 11.832031 -16.5 13.078125 -16.125 14.765625 -15.75 C 16.703125 -15.25 18.28125 -14.753906 19.5 -14.265625 C 20.71875 -13.785156 21.785156 -13.003906 22.703125 -11.921875 C 23.617188 -10.847656 24.09375 -9.40625 24.125 -7.59375 C 24.125 -6.0625 23.695312 -4.691406 22.84375 -3.484375 C 21.988281 -2.285156 20.753906 -1.34375 19.140625 -0.65625 C 17.535156 0.03125 15.671875 0.375 13.546875 0.375 Z M 13.546875 0.375 "/></g></g></g></svg>