<svg xmlns="http://www.w3.org/2000/svg" xmlns:xlink="http://www.w3.org/1999/xlink" width="163" zoomAndPan="magnify" viewBox="0 0 122.25 86.249997" height="115" preserveAspectRatio="xMidYMid meet" version="1.0"><defs><g/><clipPath id="065e9bf0e5"><path d="M 32 23.199219 L 60.390625 23.199219 L 60.390625 31 L 32 31 Z M 32 23.199219 " clip-rule="nonzero"/></clipPath><clipPath id="4b5c384fa2"><path d="M 40 31 L 60.390625 31 L 60.390625 38 L 40 38 Z M 40 31 " clip-rule="nonzero"/></clipPath><clipPath id="b5fe028b0d"><path d="M 26.78125 36 L 60.390625 36 L 60.390625 44 L 26.78125 44 Z M 26.78125 36 " clip-rule="nonzero"/></clipPath><clipPath id="29c6927d1d"><path d="M 34 44 L 60.390625 44 L 60.390625 51.855469 L 34 51.855469 Z M 34 44 " clip-rule="nonzero"/></clipPath><clipPath id="77cbd8e6b7"><path d="M 36.074219 0 L 94.40625 0 L 94.40625 55.894531 L 36.074219 55.894531 Z M 36.074219 0 " clip-rule="nonzero"/></clipPath><clipPath id="00cf166f13"><path d="M 1 41 L 121 41 L 121 85.507812 L 1 85.507812 Z M 1 41 " clip-rule="nonzero"/></clipPath></defs><g clip-path="url(#065e9bf0e5)"><path fill="#d33333" d="M 35.953125 29.492188 C 37.535156 29.492188 38.835938 28.3125 39.046875 26.785156 L 44.390625 26.785156 L 46.675781 30.089844 C 46.761719 30.210938 46.886719 30.265625 47.027344 30.265625 L 59.976562 30.265625 C 60.207031 30.265625 60.398438 30.070312 60.398438 29.84375 C 60.398438 29.613281 60.207031 29.421875 59.976562 29.421875 L 47.238281 29.421875 L 44.953125 26.117188 C 44.863281 25.996094 44.742188 25.941406 44.601562 25.941406 L 39.03125 25.941406 C 38.820312 24.414062 37.519531 23.234375 35.9375 23.234375 C 34.214844 23.234375 32.808594 24.640625 32.808594 26.363281 C 32.808594 28.085938 34.230469 29.492188 35.953125 29.492188 Z M 35.953125 24.097656 C 37.203125 24.097656 38.222656 25.117188 38.222656 26.363281 C 38.222656 27.609375 37.203125 28.628906 35.953125 28.628906 C 34.707031 28.628906 33.6875 27.609375 33.6875 26.363281 C 33.6875 25.117188 34.6875 24.097656 35.953125 24.097656 Z M 35.953125 24.097656 " fill-opacity="1" fill-rule="nonzero"/></g><g clip-path="url(#4b5c384fa2)"><path fill="#d33333" d="M 59.976562 34.308594 L 46.5 34.308594 C 46.289062 32.777344 44.988281 31.601562 43.40625 31.601562 C 41.683594 31.601562 40.277344 33.007812 40.277344 34.730469 C 40.277344 36.449219 41.683594 37.855469 43.40625 37.855469 C 44.988281 37.855469 46.289062 36.679688 46.5 35.152344 L 59.976562 35.152344 C 60.207031 35.152344 60.398438 34.957031 60.398438 34.730469 C 60.398438 34.5 60.207031 34.308594 59.976562 34.308594 Z M 43.40625 37.011719 C 42.15625 37.011719 41.140625 35.992188 41.140625 34.746094 C 41.140625 33.5 42.15625 32.460938 43.40625 32.460938 C 44.652344 32.460938 45.671875 33.480469 45.671875 34.730469 C 45.671875 35.992188 44.652344 37.011719 43.40625 37.011719 Z M 43.40625 37.011719 " fill-opacity="1" fill-rule="nonzero"/></g><g clip-path="url(#b5fe028b0d)"><path fill="#d33333" d="M 59.976562 39.71875 L 48.222656 39.71875 C 48.082031 39.71875 47.941406 39.789062 47.851562 39.914062 L 46.199219 42.550781 L 38.960938 42.550781 L 37.167969 39.210938 C 37.097656 39.070312 36.957031 38.980469 36.796875 38.980469 L 33 38.980469 C 32.792969 37.453125 31.492188 36.273438 29.910156 36.273438 C 28.1875 36.273438 26.78125 37.679688 26.78125 39.402344 C 26.78125 41.125 28.1875 42.53125 29.910156 42.53125 C 31.492188 42.53125 32.792969 41.355469 33 39.824219 L 36.535156 39.824219 L 38.328125 43.164062 C 38.398438 43.304688 38.539062 43.394531 38.695312 43.394531 L 46.429688 43.394531 C 46.570312 43.394531 46.710938 43.324219 46.796875 43.199219 L 48.449219 40.5625 L 59.960938 40.5625 C 60.1875 40.5625 60.382812 40.371094 60.382812 40.140625 C 60.398438 39.914062 60.207031 39.71875 59.976562 39.71875 Z M 29.910156 41.707031 C 28.660156 41.707031 27.640625 40.6875 27.640625 39.4375 C 27.640625 38.191406 28.660156 37.171875 29.910156 37.171875 C 31.15625 37.171875 32.175781 38.191406 32.175781 39.4375 C 32.195312 40.6875 31.175781 41.707031 29.910156 41.707031 Z M 29.910156 41.707031 " fill-opacity="1" fill-rule="nonzero"/></g><g clip-path="url(#29c6927d1d)"><path fill="#d33333" d="M 59.976562 44.691406 L 53.195312 44.691406 C 53.035156 44.691406 52.894531 44.78125 52.824219 44.902344 L 50.820312 48.3125 L 40.59375 48.3125 C 40.382812 46.785156 39.082031 45.605469 37.5 45.605469 C 35.777344 45.605469 34.371094 47.011719 34.371094 48.734375 C 34.371094 50.457031 35.777344 51.863281 37.5 51.863281 C 39.082031 51.863281 40.382812 50.6875 40.59375 49.15625 L 51.066406 49.15625 C 51.226562 49.15625 51.367188 49.070312 51.4375 48.945312 L 53.441406 45.535156 L 59.976562 45.535156 C 60.207031 45.535156 60.398438 45.34375 60.398438 45.113281 C 60.398438 44.886719 60.207031 44.691406 59.976562 44.691406 Z M 37.5 51.019531 C 36.253906 51.019531 35.234375 50 35.234375 48.753906 C 35.234375 47.503906 36.253906 46.484375 37.5 46.484375 C 38.75 46.484375 39.769531 47.503906 39.769531 48.753906 C 39.785156 50 38.765625 51.019531 37.5 51.019531 Z M 37.5 51.019531 " fill-opacity="1" fill-rule="nonzero"/></g><g clip-path="url(#77cbd8e6b7)"><path fill="#000000" d="M 92.261719 1.832031 C 86 -3.449219 64.949219 8.460938 71.148438 19.570312 C 71.757812 20.671875 71.640625 22.023438 70.78125 22.882812 C 69.304688 24.480469 67.710938 26.074219 65.929688 27.855469 L 62.863281 24.785156 C 62.066406 23.988281 61.816406 22.761719 62.246094 21.777344 C 63.902344 17.851562 63.042969 13.058594 59.730469 9.871094 L 49.910156 0.355469 C 49.417969 -0.0742188 48.683594 -0.132812 48.191406 0.296875 C 47.644531 0.789062 47.582031 1.648438 48.074219 2.199219 L 57.335938 11.832031 C 57.828125 12.386719 57.828125 13.246094 57.21875 13.738281 L 57.09375 13.863281 C 56.539062 14.292969 55.804688 14.230469 55.3125 13.738281 L 46.105469 3.671875 C 45.617188 3.179688 44.878906 3.117188 44.328125 3.546875 L 44.203125 3.609375 C 43.652344 4.101562 43.589844 4.898438 44.082031 5.453125 L 52.859375 15.640625 C 53.351562 16.195312 53.289062 16.992188 52.734375 17.484375 L 52.675781 17.546875 C 52.121094 18.03125 51.324219 17.914062 50.832031 17.359375 L 42.304688 6.921875 C 41.875 6.375 41.015625 6.3125 40.460938 6.742188 L 40.335938 6.804688 C 39.789062 7.234375 39.726562 8.03125 40.15625 8.582031 L 48.503906 19.382812 C 48.933594 19.9375 48.808594 20.734375 48.316406 21.164062 L 48.191406 21.289062 C 47.644531 21.777344 46.785156 21.65625 46.292969 21.039062 L 38.4375 10.300781 C 38.003906 9.6875 37.144531 9.566406 36.535156 10.058594 C 36.042969 10.488281 35.917969 11.222656 36.285156 11.777344 L 44.140625 23.371094 C 46.660156 27.113281 51.136719 28.652344 55.25 27.667969 C 56.359375 27.425781 57.523438 27.855469 58.195312 28.773438 C 59.117188 30.0625 60.039062 31.351562 61.019531 32.765625 C 58.445312 35.402344 55.617188 38.410156 52.675781 41.90625 C 44.511719 51.667969 46.046875 54.121094 47.394531 55.222656 C 48.746094 56.328125 51.449219 57.496094 59.609375 47.734375 C 62.003906 44.851562 64.089844 42.152344 65.929688 39.636719 C 67.773438 42.152344 69.796875 44.789062 72.191406 47.617188 C 80.355469 57.4375 83.054688 56.332031 84.40625 55.164062 C 85.753906 54.058594 87.347656 51.605469 79.125 41.847656 C 76.175781 38.347656 73.417969 35.339844 70.839844 32.765625 C 72.375 30.554688 73.785156 28.527344 75.199219 26.683594 C 75.933594 25.707031 77.222656 25.339844 78.449219 25.769531 C 90.417969 29.816406 98.460938 7.109375 92.261719 1.832031 " fill-opacity="1" fill-rule="nonzero"/></g><g clip-path="url(#00cf166f13)"><path stroke-linecap="butt" transform="matrix(0.128709, 0, 0, 0.128709, 8.086117, 60.295729)" fill="none" stroke-linejoin="miter" d="M 190.805477 41.982167 C 198.574932 41.982167 204.735866 44.319074 209.31863 49.023236 C 213.901395 53.727397 216.177602 60.222176 216.177602 68.598619 L 216.177602 104.987587 L 197.209207 104.987587 L 197.209207 71.147971 C 197.209207 67.141846 196.146977 64.015855 193.992168 61.830695 C 191.867708 59.615187 188.954162 58.522607 185.221182 58.522607 C 181.518552 58.522607 178.605006 59.615187 176.480546 61.830695 C 174.325736 64.015855 173.263506 67.141846 173.263506 71.147971 L 173.263506 104.987587 L 154.295112 104.987587 L 154.295112 71.147971 C 154.295112 67.141846 153.232882 64.015855 151.108422 61.830695 C 148.983961 59.615187 146.040067 58.522607 142.337436 58.522607 C 138.604456 58.522607 135.690911 59.615187 133.56645 61.830695 C 131.44199 64.015855 130.37976 67.141846 130.37976 71.147971 L 130.37976 104.987587 L 111.259618 104.987587 L 111.259618 42.649855 L 130.37976 42.649855 L 130.37976 50.480008 C 132.322124 47.869957 134.841126 45.806196 137.967118 44.288724 C 141.093109 42.740903 144.643993 41.982167 148.589419 41.982167 C 153.293581 41.982167 157.481802 42.983699 161.154083 45.017111 C 164.856714 47.020173 167.73991 49.87302 169.803671 53.606 C 171.98883 50.176514 174.932725 47.384366 178.635356 45.229557 C 182.368336 43.074747 186.435159 41.982167 190.805477 41.982167 Z M 282.9767 91.148246 L 253.719848 91.148246 L 249.015686 104.987587 L 229.045761 104.987587 L 257.392129 26.564656 L 279.516865 26.564656 L 307.893583 104.987587 L 287.680862 104.987587 Z M 278.090441 76.398422 L 268.348274 47.687861 L 258.727504 76.398422 Z M 340.185378 26.564656 L 340.185378 104.987587 L 321.095585 104.987587 L 321.095585 26.564656 Z M 447.440267 26.564656 L 447.440267 104.987587 L 428.350475 104.987587 L 428.350475 57.976318 L 410.808504 104.987587 L 395.390993 104.987587 L 377.727624 57.824571 L 377.727624 104.987587 L 358.607482 104.987587 L 358.607482 26.564656 L 381.187459 26.564656 L 403.190797 80.859789 L 424.981688 26.564656 Z M 524.527822 72.81719 C 524.527822 74.607806 524.406425 76.489471 524.193979 78.401485 L 480.946039 78.401485 C 481.249534 82.286212 482.49386 85.230107 484.679019 87.293868 C 486.894528 89.32728 489.595627 90.359161 492.782317 90.359161 C 497.547178 90.359161 500.885616 88.356098 502.736931 84.319624 L 523.07105 84.319624 C 522.039169 88.447147 520.157504 92.119428 517.426056 95.397166 C 514.724956 98.674905 511.29547 101.254607 507.198297 103.105922 C 503.101124 104.987587 498.51836 105.898069 493.480354 105.898069 C 487.349769 105.898069 481.917221 104.593044 477.15236 102.013342 C 472.3875 99.372942 468.65452 95.639962 465.98377 90.814402 C 463.31302 85.988843 461.977645 80.313499 461.977645 73.818721 C 461.977645 67.354292 463.28267 61.678948 465.923071 56.853389 C 468.563471 51.99748 472.296451 48.2645 477.061312 45.684798 C 481.826173 43.074747 487.28907 41.769721 493.480354 41.769721 C 499.519891 41.769721 504.861391 43.044398 509.565553 45.5634 C 514.269715 48.082403 517.911646 51.693985 520.552047 56.398147 C 523.192447 61.07196 524.527822 66.565207 524.527822 72.81719 Z M 504.982789 67.779184 C 504.982789 64.531795 503.85986 61.921744 501.614002 59.97938 C 499.398493 58.037017 496.606346 57.065835 493.267908 57.065835 C 490.020519 57.065835 487.31942 58.006667 485.134261 59.888332 C 482.949102 61.739647 481.583377 64.380048 481.067437 67.779184 Z M 535.362569 73.697323 C 535.362569 67.323943 536.576547 61.678948 539.004501 56.853389 C 541.402106 51.99748 544.710194 48.2645 548.868066 45.684798 C 553.056288 43.074747 557.699751 41.769721 562.828805 41.769721 C 567.229472 41.769721 571.08385 42.649855 574.391938 44.440471 C 577.730375 46.231088 580.279727 48.567994 582.070344 51.481539 L 582.070344 42.649855 L 601.160136 42.649855 L 601.160136 104.987587 L 582.070344 104.987587 L 582.070344 96.155902 C 580.188679 99.069447 577.608977 101.436703 574.300889 103.22732 C 570.992802 105.017936 567.138424 105.898069 562.737756 105.898069 C 557.669401 105.898069 553.056288 104.593044 548.868066 101.952643 C 544.710194 99.281894 541.402106 95.518564 539.004501 90.662655 C 536.576547 85.746047 535.362569 80.101053 535.362569 73.697323 Z M 582.070344 73.818721 C 582.070344 69.05386 580.734969 65.290531 578.094568 62.559082 C 575.454168 59.797284 572.237128 58.40121 568.4131 58.40121 C 564.619421 58.40121 561.402381 59.766934 558.731631 62.498383 C 556.091231 65.199482 554.786205 68.962812 554.786205 73.697323 C 554.786205 78.462184 556.091231 82.255863 558.731631 85.04801 C 561.402381 87.840158 564.619421 89.236232 568.4131 89.236232 C 572.237128 89.236232 575.454168 87.870507 578.094568 85.108709 C 580.734969 82.346911 582.070344 78.583581 582.070344 73.818721 Z M 638.702382 22.315736 L 638.702382 104.987587 L 619.582241 104.987587 L 619.582241 22.315736 Z M 682.496612 105.898069 C 677.064063 105.898069 672.208154 104.987587 667.959234 103.105922 C 663.710314 101.254607 660.371876 98.674905 657.883223 95.457865 C 655.455268 92.210476 654.059195 88.568544 653.78605 84.53207 L 672.663396 84.53207 C 672.875842 86.717229 673.907723 88.447147 675.66799 89.812871 C 677.458606 91.148246 679.674114 91.815933 682.284166 91.815933 C 684.651421 91.815933 686.502736 91.360692 687.807762 90.41986 C 689.112788 89.479027 689.750126 88.26505 689.750126 86.777928 C 689.750126 84.987311 688.809293 83.682286 686.957978 82.832502 C 685.106663 81.982718 682.07172 81.011536 677.913847 79.949306 C 673.452481 78.917425 669.719501 77.824846 666.745257 76.671567 C 663.740663 75.518289 661.191311 73.697323 659.006152 71.20867 C 656.881692 68.720016 655.789112 65.351229 655.789112 61.07196 C 655.789112 57.521076 656.790643 54.273687 658.733007 51.329792 C 660.736069 48.385897 663.619265 46.048991 667.473643 44.319074 C 671.297671 42.619506 675.880436 41.769721 681.161237 41.769721 C 688.99139 41.769721 695.152324 43.712085 699.64404 47.566463 C 704.135756 51.45119 706.745807 56.580244 707.413495 62.983974 L 689.750126 62.983974 C 689.476981 60.829164 688.505799 59.129596 686.897279 57.85492 C 685.288759 56.580244 683.194648 55.942906 680.584597 55.942906 C 678.369089 55.942906 676.639171 56.367798 675.425194 57.247931 C 674.241566 58.097715 673.664927 59.250994 673.664927 60.768465 C 673.664927 62.528732 674.605759 63.894457 676.487424 64.80494 C 678.399438 65.685073 681.373683 66.565207 685.379808 67.47569 C 690.02327 68.659317 693.7866 69.812596 696.700145 70.996224 C 699.583341 72.119153 702.132693 74.000817 704.317853 76.580519 C 706.533361 79.129871 707.65629 82.589706 707.747338 86.899326 C 707.747338 90.541257 706.715458 93.818996 704.651696 96.671842 C 702.618284 99.555038 699.67439 101.800896 695.850361 103.439766 C 691.995983 105.078635 687.564967 105.898069 682.496612 105.898069 Z M 682.496612 105.898069 " stroke="#820000" stroke-width="29.329124" stroke-opacity="1" stroke-miterlimit="4"/></g><g fill="#ffffff" fill-opacity="1"><g transform="translate(21.516114, 73.810191)"><g><path d="M 11.125 -8.109375 C 12.125 -8.109375 12.914062 -7.804688 13.5 -7.203125 C 14.09375 -6.597656 14.390625 -5.757812 14.390625 -4.6875 L 14.390625 0 L 11.953125 0 L 11.953125 -4.359375 C 11.953125 -4.867188 11.8125 -5.265625 11.53125 -5.546875 C 11.257812 -5.835938 10.882812 -5.984375 10.40625 -5.984375 C 9.925781 -5.984375 9.550781 -5.835938 9.28125 -5.546875 C 9.007812 -5.265625 8.875 -4.867188 8.875 -4.359375 L 8.875 0 L 6.421875 0 L 6.421875 -4.359375 C 6.421875 -4.867188 6.285156 -5.265625 6.015625 -5.546875 C 5.742188 -5.835938 5.367188 -5.984375 4.890625 -5.984375 C 4.410156 -5.984375 4.03125 -5.835938 3.75 -5.546875 C 3.476562 -5.265625 3.34375 -4.867188 3.34375 -4.359375 L 3.34375 0 L 0.890625 0 L 0.890625 -8.015625 L 3.34375 -8.015625 L 3.34375 -7.015625 C 3.59375 -7.347656 3.921875 -7.613281 4.328125 -7.8125 C 4.734375 -8.007812 5.1875 -8.109375 5.6875 -8.109375 C 6.289062 -8.109375 6.828125 -7.976562 7.296875 -7.71875 C 7.773438 -7.457031 8.148438 -7.085938 8.421875 -6.609375 C 8.703125 -7.054688 9.082031 -7.414062 9.5625 -7.6875 C 10.039062 -7.96875 10.5625 -8.109375 11.125 -8.109375 Z M 11.125 -8.109375 "/></g></g></g><g fill="#ffffff" fill-opacity="1"><g transform="translate(37.333311, 73.810191)"><g><path d="M 7.171875 -1.78125 L 3.40625 -1.78125 L 2.796875 0 L 0.234375 0 L 3.875 -10.09375 L 6.734375 -10.09375 L 10.375 0 L 7.78125 0 Z M 6.546875 -3.6875 L 5.296875 -7.375 L 4.046875 -3.6875 Z M 6.546875 -3.6875 "/></g></g></g><g fill="#ffffff" fill-opacity="1"><g transform="translate(48.520402, 73.810191)"><g><path d="M 3.34375 -10.09375 L 3.34375 0 L 0.890625 0 L 0.890625 -10.09375 Z M 3.34375 -10.09375 "/></g></g></g><g fill="#ffffff" fill-opacity="1"><g transform="translate(53.351878, 73.810191)"><g><path d="M 12.3125 -10.09375 L 12.3125 0 L 9.859375 0 L 9.859375 -6.046875 L 7.609375 0 L 5.625 0 L 3.34375 -6.0625 L 3.34375 0 L 0.890625 0 L 0.890625 -10.09375 L 3.796875 -10.09375 L 6.625 -3.109375 L 9.4375 -10.09375 Z M 12.3125 -10.09375 "/></g></g></g><g fill="#ffffff" fill-opacity="1"><g transform="translate(67.141605, 73.810191)"><g><path d="M 8.453125 -4.140625 C 8.453125 -3.910156 8.4375 -3.671875 8.40625 -3.421875 L 2.84375 -3.421875 C 2.882812 -2.921875 3.046875 -2.539062 3.328125 -2.28125 C 3.609375 -2.019531 3.957031 -1.890625 4.375 -1.890625 C 4.988281 -1.890625 5.414062 -2.144531 5.65625 -2.65625 L 8.265625 -2.65625 C 8.128906 -2.132812 7.882812 -1.660156 7.53125 -1.234375 C 7.1875 -0.816406 6.75 -0.488281 6.21875 -0.25 C 5.695312 -0.0078125 5.109375 0.109375 4.453125 0.109375 C 3.671875 0.109375 2.972656 -0.0546875 2.359375 -0.390625 C 1.742188 -0.722656 1.265625 -1.203125 0.921875 -1.828125 C 0.578125 -2.453125 0.40625 -3.179688 0.40625 -4.015625 C 0.40625 -4.847656 0.570312 -5.570312 0.90625 -6.1875 C 1.25 -6.8125 1.726562 -7.289062 2.34375 -7.625 C 2.957031 -7.96875 3.660156 -8.140625 4.453125 -8.140625 C 5.234375 -8.140625 5.925781 -7.972656 6.53125 -7.640625 C 7.132812 -7.316406 7.601562 -6.851562 7.9375 -6.25 C 8.28125 -5.644531 8.453125 -4.941406 8.453125 -4.140625 Z M 5.9375 -4.78125 C 5.9375 -5.207031 5.789062 -5.546875 5.5 -5.796875 C 5.21875 -6.046875 4.859375 -6.171875 4.421875 -6.171875 C 4.015625 -6.171875 3.671875 -6.050781 3.390625 -5.8125 C 3.109375 -5.570312 2.929688 -5.226562 2.859375 -4.78125 Z M 5.9375 -4.78125 "/></g></g></g><g fill="#ffffff" fill-opacity="1"><g transform="translate(76.58881, 73.810191)"><g><path d="M 0.40625 -4.03125 C 0.40625 -4.851562 0.5625 -5.570312 0.875 -6.1875 C 1.1875 -6.8125 1.609375 -7.289062 2.140625 -7.625 C 2.679688 -7.96875 3.28125 -8.140625 3.9375 -8.140625 C 4.5 -8.140625 4.992188 -8.023438 5.421875 -7.796875 C 5.847656 -7.566406 6.175781 -7.265625 6.40625 -6.890625 L 6.40625 -8.015625 L 8.875 -8.015625 L 8.875 0 L 6.40625 0 L 6.40625 -1.140625 C 6.164062 -0.765625 5.832031 -0.460938 5.40625 -0.234375 C 4.976562 -0.00390625 4.484375 0.109375 3.921875 0.109375 C 3.273438 0.109375 2.679688 -0.0546875 2.140625 -0.390625 C 1.609375 -0.734375 1.1875 -1.21875 0.875 -1.84375 C 0.5625 -2.46875 0.40625 -3.195312 0.40625 -4.03125 Z M 6.40625 -4.015625 C 6.40625 -4.628906 6.234375 -5.113281 5.890625 -5.46875 C 5.554688 -5.820312 5.144531 -6 4.65625 -6 C 4.164062 -6 3.75 -5.820312 3.40625 -5.46875 C 3.070312 -5.113281 2.90625 -4.632812 2.90625 -4.03125 C 2.90625 -3.414062 3.070312 -2.925781 3.40625 -2.5625 C 3.75 -2.207031 4.164062 -2.03125 4.65625 -2.03125 C 5.144531 -2.03125 5.554688 -2.207031 5.890625 -2.5625 C 6.234375 -2.914062 6.40625 -3.398438 6.40625 -4.015625 Z M 6.40625 -4.015625 "/></g></g></g><g fill="#ffffff" fill-opacity="1"><g transform="translate(86.941905, 73.810191)"><g><path d="M 3.34375 -10.640625 L 3.34375 0 L 0.890625 0 L 0.890625 -10.640625 Z M 3.34375 -10.640625 "/></g></g></g><g fill="#ffffff" fill-opacity="1"><g transform="translate(91.773377, 73.810191)"><g><path d="M 4.15625 0.109375 C 3.457031 0.109375 2.832031 -0.0078125 2.28125 -0.25 C 1.738281 -0.488281 1.304688 -0.816406 0.984375 -1.234375 C 0.671875 -1.648438 0.492188 -2.113281 0.453125 -2.625 L 2.890625 -2.625 C 2.921875 -2.351562 3.050781 -2.128906 3.28125 -1.953125 C 3.507812 -1.785156 3.789062 -1.703125 4.125 -1.703125 C 4.425781 -1.703125 4.660156 -1.757812 4.828125 -1.875 C 5.003906 -2 5.09375 -2.15625 5.09375 -2.34375 C 5.09375 -2.570312 4.972656 -2.738281 4.734375 -2.84375 C 4.492188 -2.957031 4.101562 -3.082031 3.5625 -3.21875 C 2.988281 -3.351562 2.507812 -3.492188 2.125 -3.640625 C 1.738281 -3.785156 1.40625 -4.019531 1.125 -4.34375 C 0.851562 -4.664062 0.71875 -5.101562 0.71875 -5.65625 C 0.71875 -6.113281 0.84375 -6.53125 1.09375 -6.90625 C 1.351562 -7.28125 1.726562 -7.578125 2.21875 -7.796875 C 2.71875 -8.023438 3.304688 -8.140625 3.984375 -8.140625 C 4.984375 -8.140625 5.773438 -7.890625 6.359375 -7.390625 C 6.941406 -6.890625 7.273438 -6.226562 7.359375 -5.40625 L 5.09375 -5.40625 C 5.050781 -5.6875 4.925781 -5.90625 4.71875 -6.0625 C 4.507812 -6.226562 4.238281 -6.3125 3.90625 -6.3125 C 3.625 -6.3125 3.40625 -6.253906 3.25 -6.140625 C 3.09375 -6.035156 3.015625 -5.882812 3.015625 -5.6875 C 3.015625 -5.457031 3.132812 -5.285156 3.375 -5.171875 C 3.625 -5.054688 4.007812 -4.941406 4.53125 -4.828125 C 5.125 -4.671875 5.609375 -4.519531 5.984375 -4.375 C 6.359375 -4.226562 6.6875 -3.988281 6.96875 -3.65625 C 7.25 -3.320312 7.394531 -2.878906 7.40625 -2.328125 C 7.40625 -1.859375 7.269531 -1.4375 7 -1.0625 C 6.738281 -0.695312 6.359375 -0.410156 5.859375 -0.203125 C 5.367188 0.00390625 4.800781 0.109375 4.15625 0.109375 Z M 4.15625 0.109375 "/></g></g></g></svg>