<svg xmlns="http://www.w3.org/2000/svg" xmlns:xlink="http://www.w3.org/1999/xlink" width="175" zoomAndPan="magnify" viewBox="0 0 131.25 157.499993" height="210" preserveAspectRatio="xMidYMid meet" version="1.0"><defs><g/><clipPath id="ee05ff4de3"><path d="M 37.359375 16.820312 L 85.890625 16.820312 L 85.890625 79.910156 L 37.359375 79.910156 Z M 37.359375 16.820312 " clip-rule="nonzero"/></clipPath><clipPath id="c2c2e1b3fc"><path d="M 0 0.199219 L 130 0.199219 L 130 156.804688 L 0 156.804688 Z M 0 0.199219 " clip-rule="nonzero"/></clipPath><clipPath id="1717926bf8"><path d="M 11.929688 0.199219 L 118.066406 0.199219 C 121.230469 0.199219 124.265625 1.457031 126.503906 3.695312 C 128.742188 5.929688 130 8.964844 130 12.128906 L 130 144.632812 C 130 147.796875 128.742188 150.832031 126.503906 153.066406 C 124.265625 155.304688 121.230469 156.5625 118.066406 156.5625 L 11.929688 156.5625 C 8.765625 156.5625 5.730469 155.304688 3.496094 153.066406 C 1.257812 150.832031 0 147.796875 0 144.632812 L 0 12.128906 C 0 8.964844 1.257812 5.929688 3.496094 3.695312 C 5.730469 1.457031 8.765625 0.199219 11.929688 0.199219 Z M 11.929688 0.199219 " clip-rule="nonzero"/></clipPath></defs><g clip-path="url(#ee05ff4de3)"><path fill="#1a1a1a" d="M 85.886719 74.988281 L 85.886719 21.75 C 85.886719 20.394531 85.335938 19.160156 84.449219 18.269531 C 83.558594 17.375 82.332031 16.820312 80.984375 16.820312 L 42.273438 16.820312 C 40.921875 16.820312 39.695312 17.375 38.808594 18.269531 C 37.917969 19.160156 37.367188 20.394531 37.367188 21.75 L 37.367188 74.988281 C 37.367188 76.34375 37.917969 77.578125 38.808594 78.46875 C 39.695312 79.363281 40.921875 79.917969 42.273438 79.917969 L 80.984375 79.917969 C 82.332031 79.917969 83.558594 79.363281 84.449219 78.46875 C 85.335938 77.578125 85.886719 76.34375 85.886719 74.988281 Z M 44.539062 41.671875 L 49.464844 41.671875 C 50.3125 41.671875 51.082031 41.976562 51.636719 42.460938 C 52.195312 42.945312 52.539062 43.617188 52.539062 44.355469 L 52.539062 48.3125 C 52.539062 49.054688 52.195312 49.722656 51.636719 50.210938 C 51.082031 50.695312 50.3125 50.996094 49.464844 50.996094 L 44.539062 50.996094 C 43.691406 50.996094 42.925781 50.695312 42.367188 50.210938 C 41.8125 49.722656 41.464844 49.054688 41.464844 48.3125 L 41.464844 44.355469 C 41.464844 43.617188 41.8125 42.945312 42.367188 42.460938 C 42.925781 41.976562 43.691406 41.671875 44.539062 41.671875 Z M 58.746094 41.671875 L 63.671875 41.671875 C 64.519531 41.671875 65.289062 41.976562 65.84375 42.460938 C 66.402344 42.945312 66.746094 43.617188 66.746094 44.355469 L 66.746094 48.3125 C 66.746094 49.054688 66.402344 49.722656 65.84375 50.210938 C 65.289062 50.695312 64.519531 50.996094 63.671875 50.996094 L 58.746094 50.996094 C 57.902344 50.996094 57.132812 50.695312 56.574219 50.210938 C 56.019531 49.722656 55.671875 49.054688 55.671875 48.3125 L 55.671875 44.355469 C 55.671875 43.617188 56.019531 42.945312 56.574219 42.460938 C 57.132812 41.976562 57.902344 41.671875 58.746094 41.671875 Z M 72.957031 41.671875 L 77.882812 41.671875 C 78.726562 41.671875 79.496094 41.976562 80.054688 42.460938 C 80.609375 42.945312 80.957031 43.617188 80.957031 44.355469 L 80.957031 48.3125 C 80.957031 49.054688 80.609375 49.722656 80.054688 50.210938 C 79.496094 50.695312 78.726562 50.996094 77.882812 50.996094 L 72.957031 50.996094 C 72.109375 50.996094 71.339844 50.695312 70.785156 50.210938 C 70.226562 49.722656 69.878906 49.054688 69.878906 48.3125 L 69.878906 44.355469 C 69.878906 43.617188 70.226562 42.945312 70.785156 42.460938 C 71.339844 41.976562 72.109375 41.671875 72.957031 41.671875 Z M 44.539062 53.929688 L 49.464844 53.929688 C 50.3125 53.929688 51.082031 54.234375 51.636719 54.71875 C 52.195312 55.203125 52.539062 55.875 52.539062 56.613281 L 52.539062 60.570312 C 52.539062 61.308594 52.195312 61.980469 51.636719 62.46875 C 51.082031 62.953125 50.3125 63.253906 49.464844 63.253906 L 44.539062 63.253906 C 43.691406 63.253906 42.925781 62.953125 42.367188 62.46875 C 41.8125 61.980469 41.464844 61.308594 41.464844 60.570312 L 41.464844 56.613281 C 41.464844 55.875 41.8125 55.203125 42.367188 54.71875 C 42.925781 54.234375 43.691406 53.929688 44.539062 53.929688 Z M 58.746094 53.929688 L 63.671875 53.929688 C 64.519531 53.929688 65.289062 54.234375 65.84375 54.71875 C 66.402344 55.203125 66.746094 55.875 66.746094 56.613281 L 66.746094 60.570312 C 66.746094 61.308594 66.402344 61.980469 65.84375 62.46875 C 65.289062 62.953125 64.519531 63.253906 63.671875 63.253906 L 58.746094 63.253906 C 57.902344 63.253906 57.132812 62.953125 56.574219 62.46875 C 56.019531 61.980469 55.671875 61.308594 55.671875 60.570312 L 55.671875 56.613281 C 55.671875 55.875 56.019531 55.203125 56.574219 54.71875 C 57.132812 54.234375 57.902344 53.929688 58.746094 53.929688 Z M 72.957031 53.929688 L 77.882812 53.929688 C 78.726562 53.929688 79.496094 54.234375 80.054688 54.71875 C 80.609375 55.203125 80.957031 55.875 80.957031 56.613281 L 80.957031 72.828125 C 80.957031 73.566406 80.609375 74.238281 80.054688 74.722656 C 79.496094 75.210938 78.726562 75.511719 77.882812 75.511719 L 72.957031 75.511719 C 72.109375 75.511719 71.339844 75.210938 70.785156 74.722656 C 70.226562 74.238281 69.878906 73.566406 69.878906 72.828125 L 69.878906 56.613281 C 69.878906 55.875 70.226562 55.203125 70.785156 54.71875 C 71.339844 54.234375 72.109375 53.929688 72.957031 53.929688 Z M 44.539062 66.1875 L 49.464844 66.1875 C 50.3125 66.1875 51.082031 66.488281 51.636719 66.976562 C 52.195312 67.460938 52.539062 68.132812 52.539062 68.871094 L 52.539062 72.828125 C 52.539062 73.566406 52.195312 74.238281 51.636719 74.722656 C 51.082031 75.210938 50.3125 75.511719 49.464844 75.511719 L 44.539062 75.511719 C 43.691406 75.511719 42.925781 75.210938 42.367188 74.722656 C 41.8125 74.238281 41.464844 73.566406 41.464844 72.828125 L 41.464844 68.871094 C 41.464844 68.132812 41.8125 67.460938 42.367188 66.976562 C 42.925781 66.488281 43.691406 66.1875 44.539062 66.1875 Z M 58.746094 66.1875 L 63.671875 66.1875 C 64.519531 66.1875 65.289062 66.488281 65.84375 66.976562 C 66.402344 67.460938 66.746094 68.132812 66.746094 68.871094 L 66.746094 72.828125 C 66.746094 73.566406 66.402344 74.238281 65.84375 74.722656 C 65.289062 75.210938 64.519531 75.511719 63.671875 75.511719 L 58.746094 75.511719 C 57.902344 75.511719 57.132812 75.210938 56.574219 74.722656 C 56.019531 74.238281 55.671875 73.566406 55.671875 72.828125 L 55.671875 68.871094 C 55.671875 68.132812 56.019531 67.460938 56.574219 66.976562 C 57.132812 66.488281 57.902344 66.1875 58.746094 66.1875 Z M 81.070312 34.574219 C 81.070312 35.1875 80.804688 35.746094 80.371094 36.152344 C 79.9375 36.558594 79.34375 36.8125 78.691406 36.8125 L 44.566406 36.8125 C 43.910156 36.8125 43.316406 36.558594 42.886719 36.152344 C 42.453125 35.746094 42.183594 35.1875 42.183594 34.574219 L 42.183594 24.734375 C 42.183594 24.121094 42.453125 23.558594 42.886719 23.152344 C 43.316406 22.746094 43.910156 22.496094 44.566406 22.496094 L 78.691406 22.496094 C 79.34375 22.496094 79.9375 22.746094 80.371094 23.152344 C 80.804688 23.558594 81.070312 24.121094 81.070312 24.734375 L 81.070312 34.574219 " fill-opacity="1" fill-rule="evenodd"/></g><g fill="#9b9090" fill-opacity="1"><g transform="translate(42.171167, 98.267507)"><g><path d="M 2.40625 0 L 1.25 0 L 1.25 -11.28125 L 2.40625 -11.28125 L 2.40625 -6.203125 L 7.53125 -6.203125 L 7.53125 -11.28125 L 8.6875 -11.28125 L 8.6875 0 L 7.53125 0 L 7.53125 -5.046875 L 2.40625 -5.046875 Z M 2.40625 0 "/></g></g></g><g fill="#9b9090" fill-opacity="1"><g transform="translate(52.112325, 98.267507)"><g><path d="M 2.421875 -9.828125 C 2.566406 -9.679688 2.640625 -9.507812 2.640625 -9.3125 C 2.640625 -9.101562 2.566406 -8.925781 2.421875 -8.78125 C 2.273438 -8.632812 2.101562 -8.5625 1.90625 -8.5625 C 1.695312 -8.5625 1.519531 -8.632812 1.375 -8.78125 C 1.226562 -8.925781 1.15625 -9.101562 1.15625 -9.3125 C 1.15625 -9.507812 1.226562 -9.679688 1.375 -9.828125 C 1.519531 -9.972656 1.695312 -10.046875 1.90625 -10.046875 C 2.101562 -10.046875 2.273438 -9.972656 2.421875 -9.828125 Z M 2.484375 0 L 1.328125 0 L 1.328125 -7.296875 L 2.484375 -7.296875 Z M 2.484375 0 "/></g></g></g><g fill="#9b9090" fill-opacity="1"><g transform="translate(55.912863, 98.267507)"><g><path d="M 0.328125 -6.21875 L 0.328125 -7.296875 L 2.15625 -7.296875 L 2.15625 -10.140625 L 3.3125 -10.140625 L 3.3125 -7.296875 L 5.125 -7.296875 L 5.125 -6.21875 L 3.3125 -6.21875 L 3.3125 0 L 2.15625 0 L 2.15625 -6.21875 Z M 0.328125 -6.21875 "/></g></g></g><g fill="#9b9090" fill-opacity="1"><g transform="translate(61.373031, 98.267507)"><g><path d="M 6.28125 -1.25 C 5.738281 -0.3125 4.925781 0.15625 3.84375 0.15625 C 3.03125 0.15625 2.390625 -0.113281 1.921875 -0.65625 C 1.472656 -1.207031 1.25 -1.898438 1.25 -2.734375 L 1.25 -7.296875 L 2.40625 -7.296875 L 2.40625 -2.734375 C 2.40625 -2.265625 2.515625 -1.863281 2.734375 -1.53125 C 2.941406 -1.1875 3.296875 -1.015625 3.796875 -1.015625 C 4.703125 -1.015625 5.34375 -1.300781 5.71875 -1.875 C 6.09375 -2.4375 6.28125 -3.226562 6.28125 -4.25 L 6.28125 -7.296875 L 7.453125 -7.296875 L 7.453125 0 L 6.28125 0 Z M 6.28125 -1.25 "/></g></g></g><g fill="#9b9090" fill-opacity="1"><g transform="translate(69.820525, 98.267507)"><g><path d="M 6.28125 0 L 6.28125 -4.5625 C 6.28125 -5.039062 6.175781 -5.453125 5.96875 -5.796875 C 5.75 -6.117188 5.390625 -6.28125 4.890625 -6.28125 C 4.390625 -6.28125 3.988281 -6.1875 3.6875 -6 C 3.375 -5.8125 3.125 -5.570312 2.9375 -5.28125 C 2.582031 -4.726562 2.40625 -3.984375 2.40625 -3.046875 L 2.40625 0 L 1.25 0 L 1.25 -7.296875 L 2.40625 -7.296875 L 2.40625 -6.046875 C 2.644531 -6.453125 2.953125 -6.785156 3.328125 -7.046875 C 3.734375 -7.316406 4.195312 -7.453125 4.71875 -7.453125 C 5.238281 -7.453125 5.65625 -7.378906 5.96875 -7.234375 C 6.289062 -7.078125 6.5625 -6.875 6.78125 -6.625 C 7.226562 -6.101562 7.453125 -5.414062 7.453125 -4.5625 L 7.453125 0 Z M 6.28125 0 "/></g></g></g><g fill="#9b9090" fill-opacity="1"><g transform="translate(78.26802, 98.267507)"><g><path d="M 7.15625 -3.65625 C 7.15625 -4.363281 6.910156 -4.984375 6.421875 -5.515625 C 5.921875 -6.046875 5.304688 -6.3125 4.578125 -6.3125 C 3.867188 -6.3125 3.257812 -6.046875 2.75 -5.515625 C 2.257812 -4.992188 2.015625 -4.375 2.015625 -3.65625 C 2.015625 -2.9375 2.257812 -2.316406 2.75 -1.796875 C 3.257812 -1.265625 3.867188 -1 4.578125 -1 C 5.304688 -1 5.921875 -1.265625 6.421875 -1.796875 C 6.910156 -2.328125 7.15625 -2.945312 7.15625 -3.65625 Z M 1.96875 1 C 2.082031 1.445312 2.320312 1.847656 2.6875 2.203125 C 3.195312 2.722656 3.8125 2.984375 4.53125 2.984375 C 5.25 2.984375 5.867188 2.722656 6.390625 2.203125 C 6.898438 1.691406 7.15625 1.078125 7.15625 0.359375 L 7.15625 -1.234375 C 7.09375 -1.148438 7.03125 -1.070312 6.96875 -1 C 6.269531 -0.21875 5.414062 0.171875 4.40625 0.171875 C 3.394531 0.171875 2.546875 -0.21875 1.859375 -1 C 1.179688 -1.75 0.84375 -2.632812 0.84375 -3.65625 C 0.84375 -4.664062 1.179688 -5.550781 1.859375 -6.3125 C 2.546875 -7.082031 3.394531 -7.46875 4.40625 -7.46875 C 5.382812 -7.46875 6.238281 -7.082031 6.96875 -6.3125 C 7.03125 -6.226562 7.09375 -6.148438 7.15625 -6.078125 L 7.15625 -7.296875 L 8.3125 -7.296875 L 8.3125 0.359375 C 8.3125 1.398438 7.941406 2.289062 7.203125 3.03125 C 6.460938 3.769531 5.570312 4.140625 4.53125 4.140625 C 3.488281 4.140625 2.597656 3.769531 1.859375 3.03125 C 1.273438 2.445312 0.921875 1.769531 0.796875 1 Z M 1.96875 1 "/></g></g></g><g fill="#9b9090" fill-opacity="1"><g transform="translate(27.893426, 116.948663)"><g><path d="M 2.40625 0 L 1.25 0 L 1.25 -12.4375 L 2.40625 -12.4375 L 2.40625 -4.03125 L 5.078125 -7.3125 L 6.625 -7.3125 L 3.625 -3.765625 L 6.8125 0 L 5.28125 0 L 2.40625 -3.5 Z M 2.40625 0 "/></g></g></g><g fill="#9b9090" fill-opacity="1"><g transform="translate(34.880445, 116.948663)"><g><path d="M 8.375 -3.8125 L 8.375 -3.203125 L 1.953125 -3.203125 C 2.066406 -2.566406 2.375 -2.050781 2.875 -1.65625 C 3.382812 -1.25 3.945312 -1.046875 4.5625 -1.046875 C 4.976562 -1.046875 5.382812 -1.144531 5.78125 -1.34375 C 6.15625 -1.53125 6.46875 -1.796875 6.71875 -2.140625 L 8.046875 -2.140625 C 7.734375 -1.441406 7.269531 -0.894531 6.65625 -0.5 C 6.019531 -0.09375 5.382812 0.109375 4.75 0.109375 C 4.09375 0.109375 3.539062 0.0078125 3.09375 -0.1875 C 2.625 -0.382812 2.21875 -0.65625 1.875 -1 C 1.125 -1.726562 0.75 -2.625 0.75 -3.6875 C 0.75 -4.738281 1.125 -5.640625 1.875 -6.390625 C 2.613281 -7.128906 3.507812 -7.5 4.5625 -7.5 C 5.582031 -7.5 6.472656 -7.140625 7.234375 -6.421875 C 7.992188 -5.691406 8.375 -4.820312 8.375 -3.8125 Z M 7.15625 -4.203125 C 7.019531 -4.816406 6.707031 -5.328125 6.21875 -5.734375 C 5.738281 -6.140625 5.1875 -6.34375 4.5625 -6.34375 C 3.613281 -6.34375 2.867188 -5.914062 2.328125 -5.0625 C 2.160156 -4.789062 2.039062 -4.503906 1.96875 -4.203125 Z M 7.15625 -4.203125 "/></g></g></g><g fill="#9b9090" fill-opacity="1"><g transform="translate(43.9254, 116.948663)"><g><path d="M 2.40625 0 L 1.25 0 L 1.25 -12.4375 L 2.40625 -12.4375 L 2.40625 -6.0625 C 2.46875 -6.144531 2.539062 -6.226562 2.625 -6.3125 C 3.3125 -7.082031 4.15625 -7.46875 5.15625 -7.46875 C 6.164062 -7.46875 7.019531 -7.082031 7.71875 -6.3125 C 8.382812 -5.550781 8.71875 -4.664062 8.71875 -3.65625 C 8.71875 -2.632812 8.382812 -1.75 7.71875 -1 C 7.019531 -0.21875 6.164062 0.171875 5.15625 0.171875 C 4.15625 0.171875 3.3125 -0.21875 2.625 -1 C 2.539062 -1.070312 2.46875 -1.15625 2.40625 -1.25 Z M 7.546875 -3.65625 C 7.546875 -4.363281 7.300781 -4.984375 6.8125 -5.515625 C 6.320312 -6.046875 5.710938 -6.3125 4.984375 -6.3125 C 4.253906 -6.3125 3.644531 -6.046875 3.15625 -5.515625 C 2.65625 -4.984375 2.40625 -4.363281 2.40625 -3.65625 C 2.40625 -2.945312 2.65625 -2.328125 3.15625 -1.796875 C 3.644531 -1.265625 4.253906 -1 4.984375 -1 C 5.710938 -1 6.320312 -1.265625 6.8125 -1.796875 C 7.300781 -2.328125 7.546875 -2.945312 7.546875 -3.65625 Z M 7.546875 -3.65625 "/></g></g></g><g fill="#9b9090" fill-opacity="1"><g transform="translate(53.38526, 116.948663)"><g><path d="M 6.28125 -1.25 C 5.738281 -0.3125 4.925781 0.15625 3.84375 0.15625 C 3.03125 0.15625 2.390625 -0.113281 1.921875 -0.65625 C 1.472656 -1.207031 1.25 -1.898438 1.25 -2.734375 L 1.25 -7.296875 L 2.40625 -7.296875 L 2.40625 -2.734375 C 2.40625 -2.265625 2.515625 -1.863281 2.734375 -1.53125 C 2.941406 -1.1875 3.296875 -1.015625 3.796875 -1.015625 C 4.703125 -1.015625 5.34375 -1.300781 5.71875 -1.875 C 6.09375 -2.4375 6.28125 -3.226562 6.28125 -4.25 L 6.28125 -7.296875 L 7.453125 -7.296875 L 7.453125 0 L 6.28125 0 Z M 6.28125 -1.25 "/></g></g></g><g fill="#9b9090" fill-opacity="1"><g transform="translate(61.832754, 116.948663)"><g><path d="M 0.328125 -6.21875 L 0.328125 -7.296875 L 2.15625 -7.296875 L 2.15625 -10.140625 L 3.3125 -10.140625 L 3.3125 -7.296875 L 5.125 -7.296875 L 5.125 -6.21875 L 3.3125 -6.21875 L 3.3125 0 L 2.15625 0 L 2.15625 -6.21875 Z M 0.328125 -6.21875 "/></g></g></g><g fill="#9b9090" fill-opacity="1"><g transform="translate(67.292921, 116.948663)"><g><path d="M 6.28125 -1.25 C 5.738281 -0.3125 4.925781 0.15625 3.84375 0.15625 C 3.03125 0.15625 2.390625 -0.113281 1.921875 -0.65625 C 1.472656 -1.207031 1.25 -1.898438 1.25 -2.734375 L 1.25 -7.296875 L 2.40625 -7.296875 L 2.40625 -2.734375 C 2.40625 -2.265625 2.515625 -1.863281 2.734375 -1.53125 C 2.941406 -1.1875 3.296875 -1.015625 3.796875 -1.015625 C 4.703125 -1.015625 5.34375 -1.300781 5.71875 -1.875 C 6.09375 -2.4375 6.28125 -3.226562 6.28125 -4.25 L 6.28125 -7.296875 L 7.453125 -7.296875 L 7.453125 0 L 6.28125 0 Z M 6.28125 -1.25 "/></g></g></g><g fill="#9b9090" fill-opacity="1"><g transform="translate(75.740416, 116.948663)"><g><path d="M 2.40625 0 L 1.25 0 L 1.25 -12.4375 L 2.40625 -12.4375 L 2.40625 -6.046875 C 2.644531 -6.453125 2.953125 -6.785156 3.328125 -7.046875 C 3.734375 -7.316406 4.195312 -7.453125 4.71875 -7.453125 C 5.238281 -7.453125 5.65625 -7.378906 5.96875 -7.234375 C 6.289062 -7.078125 6.5625 -6.875 6.78125 -6.625 C 7.226562 -6.101562 7.453125 -5.414062 7.453125 -4.5625 L 7.453125 0 L 6.28125 0 L 6.28125 -4.5625 C 6.28125 -5.039062 6.175781 -5.453125 5.96875 -5.796875 C 5.75 -6.117188 5.390625 -6.28125 4.890625 -6.28125 C 4.390625 -6.28125 3.988281 -6.207031 3.6875 -6.0625 C 3.375 -5.894531 3.125 -5.664062 2.9375 -5.375 C 2.582031 -4.84375 2.40625 -4.066406 2.40625 -3.046875 Z M 2.40625 0 "/></g></g></g><g fill="#9b9090" fill-opacity="1"><g transform="translate(84.18791, 116.948663)"><g><path d="M 7.046875 -3.65625 C 7.046875 -4.363281 6.804688 -4.984375 6.328125 -5.515625 C 5.828125 -6.046875 5.210938 -6.3125 4.484375 -6.3125 C 3.753906 -6.3125 3.144531 -6.046875 2.65625 -5.515625 C 2.15625 -4.984375 1.90625 -4.363281 1.90625 -3.65625 C 1.90625 -2.945312 2.15625 -2.328125 2.65625 -1.796875 C 3.144531 -1.265625 3.753906 -1 4.484375 -1 C 5.210938 -1 5.828125 -1.265625 6.328125 -1.796875 C 6.804688 -2.328125 7.046875 -2.945312 7.046875 -3.65625 Z M 8.21875 0 L 7.046875 0 L 7.046875 -1.25 C 6.984375 -1.15625 6.921875 -1.070312 6.859375 -1 C 6.160156 -0.21875 5.304688 0.171875 4.296875 0.171875 C 3.285156 0.171875 2.441406 -0.21875 1.765625 -1 C 1.085938 -1.75 0.75 -2.632812 0.75 -3.65625 C 0.75 -4.664062 1.085938 -5.550781 1.765625 -6.3125 C 2.441406 -7.082031 3.285156 -7.46875 4.296875 -7.46875 C 5.304688 -7.46875 6.160156 -7.082031 6.859375 -6.3125 C 6.921875 -6.226562 6.984375 -6.144531 7.046875 -6.0625 L 7.046875 -7.296875 L 8.21875 -7.296875 Z M 8.21875 0 "/></g></g></g><g fill="#9b9090" fill-opacity="1"><g transform="translate(93.64777, 116.948663)"><g><path d="M 6.28125 0 L 6.28125 -4.5625 C 6.28125 -5.039062 6.175781 -5.453125 5.96875 -5.796875 C 5.75 -6.117188 5.390625 -6.28125 4.890625 -6.28125 C 4.390625 -6.28125 3.988281 -6.1875 3.6875 -6 C 3.375 -5.8125 3.125 -5.570312 2.9375 -5.28125 C 2.582031 -4.726562 2.40625 -3.984375 2.40625 -3.046875 L 2.40625 0 L 1.25 0 L 1.25 -7.296875 L 2.40625 -7.296875 L 2.40625 -6.046875 C 2.644531 -6.453125 2.953125 -6.785156 3.328125 -7.046875 C 3.734375 -7.316406 4.195312 -7.453125 4.71875 -7.453125 C 5.238281 -7.453125 5.65625 -7.378906 5.96875 -7.234375 C 6.289062 -7.078125 6.5625 -6.875 6.78125 -6.625 C 7.226562 -6.101562 7.453125 -5.414062 7.453125 -4.5625 L 7.453125 0 Z M 6.28125 0 "/></g></g></g><g fill="#9b9090" fill-opacity="1"><g transform="translate(27.342999, 135.629819)"><g><path d="M 2.40625 0 L 1.25 0 L 1.25 -12.4375 L 2.40625 -12.4375 L 2.40625 -4.03125 L 5.078125 -7.3125 L 6.625 -7.3125 L 3.625 -3.765625 L 6.8125 0 L 5.28125 0 L 2.40625 -3.5 Z M 2.40625 0 "/></g></g></g><g fill="#9b9090" fill-opacity="1"><g transform="translate(34.330018, 135.629819)"><g><path d="M 7.046875 -3.65625 C 7.046875 -4.363281 6.804688 -4.984375 6.328125 -5.515625 C 5.828125 -6.046875 5.210938 -6.3125 4.484375 -6.3125 C 3.753906 -6.3125 3.144531 -6.046875 2.65625 -5.515625 C 2.15625 -4.984375 1.90625 -4.363281 1.90625 -3.65625 C 1.90625 -2.945312 2.15625 -2.328125 2.65625 -1.796875 C 3.144531 -1.265625 3.753906 -1 4.484375 -1 C 5.210938 -1 5.828125 -1.265625 6.328125 -1.796875 C 6.804688 -2.328125 7.046875 -2.945312 7.046875 -3.65625 Z M 8.21875 0 L 7.046875 0 L 7.046875 -1.25 C 6.984375 -1.15625 6.921875 -1.070312 6.859375 -1 C 6.160156 -0.21875 5.304688 0.171875 4.296875 0.171875 C 3.285156 0.171875 2.441406 -0.21875 1.765625 -1 C 1.085938 -1.75 0.75 -2.632812 0.75 -3.65625 C 0.75 -4.664062 1.085938 -5.550781 1.765625 -6.3125 C 2.441406 -7.082031 3.285156 -7.46875 4.296875 -7.46875 C 5.304688 -7.46875 6.160156 -7.082031 6.859375 -6.3125 C 6.921875 -6.226562 6.984375 -6.144531 7.046875 -6.0625 L 7.046875 -7.296875 L 8.21875 -7.296875 Z M 8.21875 0 "/></g></g></g><g fill="#9b9090" fill-opacity="1"><g transform="translate(43.789878, 135.629819)"><g><path d="M 2.40625 0 L 1.25 0 L 1.25 -12.4375 L 2.40625 -12.4375 Z M 2.40625 0 "/></g></g></g><g fill="#9b9090" fill-opacity="1"><g transform="translate(47.44105, 135.629819)"><g><path d="M 7.21875 -3.6875 C 7.21875 -4.414062 6.957031 -5.039062 6.4375 -5.5625 C 5.914062 -6.082031 5.289062 -6.34375 4.5625 -6.34375 C 3.832031 -6.34375 3.207031 -6.082031 2.6875 -5.5625 C 2.164062 -5.039062 1.90625 -4.414062 1.90625 -3.6875 C 1.90625 -2.96875 2.164062 -2.347656 2.6875 -1.828125 C 3.207031 -1.304688 3.832031 -1.046875 4.5625 -1.046875 C 5.289062 -1.046875 5.914062 -1.304688 6.4375 -1.828125 C 6.957031 -2.347656 7.21875 -2.96875 7.21875 -3.6875 Z M 8.375 -3.6875 C 8.375 -2.625 8.003906 -1.726562 7.265625 -1 C 6.503906 -0.257812 5.601562 0.109375 4.5625 0.109375 C 3.519531 0.109375 2.625 -0.257812 1.875 -1 C 1.125 -1.726562 0.75 -2.625 0.75 -3.6875 C 0.75 -4.738281 1.125 -5.640625 1.875 -6.390625 C 2.613281 -7.128906 3.507812 -7.5 4.5625 -7.5 C 5.613281 -7.5 6.515625 -7.128906 7.265625 -6.390625 C 8.003906 -5.640625 8.375 -4.738281 8.375 -3.6875 Z M 8.375 -3.6875 "/></g></g></g><g fill="#9b9090" fill-opacity="1"><g transform="translate(56.568987, 135.629819)"><g><path d="M 5 -5.796875 C 4.726562 -6.035156 4.4375 -6.15625 4.125 -6.15625 C 3.832031 -6.15625 3.582031 -6.070312 3.375 -5.90625 C 3.144531 -5.726562 2.960938 -5.519531 2.828125 -5.28125 C 2.546875 -4.789062 2.40625 -4.25 2.40625 -3.65625 L 2.40625 0 L 1.25 0 L 1.25 -7.296875 L 2.40625 -7.296875 L 2.40625 -5.796875 L 2.453125 -6.09375 C 2.835938 -7 3.441406 -7.453125 4.265625 -7.453125 C 4.515625 -7.453125 4.757812 -7.398438 5 -7.296875 Z M 5 -5.796875 "/></g></g></g><g fill="#9b9090" fill-opacity="1"><g transform="translate(61.73042, 135.629819)"><g><path d="M 2.421875 -9.828125 C 2.566406 -9.679688 2.640625 -9.507812 2.640625 -9.3125 C 2.640625 -9.101562 2.566406 -8.925781 2.421875 -8.78125 C 2.273438 -8.632812 2.101562 -8.5625 1.90625 -8.5625 C 1.695312 -8.5625 1.519531 -8.632812 1.375 -8.78125 C 1.226562 -8.925781 1.15625 -9.101562 1.15625 -9.3125 C 1.15625 -9.507812 1.226562 -9.679688 1.375 -9.828125 C 1.519531 -9.972656 1.695312 -10.046875 1.90625 -10.046875 C 2.101562 -10.046875 2.273438 -9.972656 2.421875 -9.828125 Z M 2.484375 0 L 1.328125 0 L 1.328125 -7.296875 L 2.484375 -7.296875 Z M 2.484375 0 "/></g></g></g><g fill="#9b9090" fill-opacity="1"><g transform="translate(65.530959, 135.629819)"><g/></g></g><g fill="#9b9090" fill-opacity="1"><g transform="translate(70.011949, 135.629819)"><g><path d="M 2.3125 -1.046875 C 2.59375 -0.847656 2.96875 -0.75 3.4375 -0.75 C 4.5 -0.75 5.03125 -1.144531 5.03125 -1.9375 C 5.03125 -2.40625 4.648438 -2.757812 3.890625 -3 C 3.566406 -3.113281 3.222656 -3.210938 2.859375 -3.296875 C 2.484375 -3.390625 2.132812 -3.507812 1.8125 -3.65625 C 1.4375 -3.832031 1.15625 -4.050781 0.96875 -4.3125 C 0.78125 -4.582031 0.6875 -4.898438 0.6875 -5.265625 C 0.6875 -5.992188 0.9375 -6.539062 1.4375 -6.90625 C 1.945312 -7.28125 2.554688 -7.46875 3.265625 -7.46875 C 3.972656 -7.46875 4.5625 -7.320312 5.03125 -7.03125 C 5.488281 -6.75 5.800781 -6.238281 5.96875 -5.5 L 4.734375 -5.5 C 4.597656 -5.90625 4.398438 -6.175781 4.140625 -6.3125 C 3.898438 -6.4375 3.597656 -6.5 3.234375 -6.5 C 2.867188 -6.5 2.5625 -6.421875 2.3125 -6.265625 C 2.039062 -6.109375 1.90625 -5.867188 1.90625 -5.546875 C 1.90625 -5.210938 2.015625 -4.96875 2.234375 -4.8125 C 2.453125 -4.664062 2.71875 -4.539062 3.03125 -4.4375 C 3.351562 -4.332031 3.703125 -4.242188 4.078125 -4.171875 C 4.441406 -4.078125 4.789062 -3.953125 5.125 -3.796875 C 5.875 -3.441406 6.25 -2.875 6.25 -2.09375 C 6.25 -1.300781 5.96875 -0.71875 5.40625 -0.34375 C 5.125 -0.15625 4.8125 -0.015625 4.46875 0.078125 C 4.132812 0.171875 3.769531 0.21875 3.375 0.21875 C 1.675781 0.21875 0.703125 -0.535156 0.453125 -2.046875 L 1.671875 -2.046875 C 1.796875 -1.566406 2.007812 -1.234375 2.3125 -1.046875 Z M 2.3125 -1.046875 "/></g></g></g><g fill="#9b9090" fill-opacity="1"><g transform="translate(76.683644, 135.629819)"><g><path d="M 7.046875 -3.65625 C 7.046875 -4.363281 6.804688 -4.984375 6.328125 -5.515625 C 5.828125 -6.046875 5.210938 -6.3125 4.484375 -6.3125 C 3.753906 -6.3125 3.144531 -6.046875 2.65625 -5.515625 C 2.15625 -4.984375 1.90625 -4.363281 1.90625 -3.65625 C 1.90625 -2.945312 2.15625 -2.328125 2.65625 -1.796875 C 3.144531 -1.265625 3.753906 -1 4.484375 -1 C 5.210938 -1 5.828125 -1.265625 6.328125 -1.796875 C 6.804688 -2.328125 7.046875 -2.945312 7.046875 -3.65625 Z M 8.21875 0 L 7.046875 0 L 7.046875 -1.25 C 6.984375 -1.15625 6.921875 -1.070312 6.859375 -1 C 6.160156 -0.21875 5.304688 0.171875 4.296875 0.171875 C 3.285156 0.171875 2.441406 -0.21875 1.765625 -1 C 1.085938 -1.75 0.75 -2.632812 0.75 -3.65625 C 0.75 -4.664062 1.085938 -5.550781 1.765625 -6.3125 C 2.441406 -7.082031 3.285156 -7.46875 4.296875 -7.46875 C 5.304688 -7.46875 6.160156 -7.082031 6.859375 -6.3125 C 6.921875 -6.226562 6.984375 -6.144531 7.046875 -6.0625 L 7.046875 -7.296875 L 8.21875 -7.296875 Z M 8.21875 0 "/></g></g></g><g fill="#9b9090" fill-opacity="1"><g transform="translate(86.143504, 135.629819)"><g><path d="M 2.171875 4.140625 L 0.765625 4.140625 L 3.21875 -1.1875 L 0.171875 -7.296875 L 1.5 -7.296875 L 3.828125 -2.40625 L 5.921875 -7.296875 L 7.21875 -7.296875 Z M 2.171875 4.140625 "/></g></g></g><g fill="#9b9090" fill-opacity="1"><g transform="translate(93.196908, 135.629819)"><g><path d="M 7.046875 -3.65625 C 7.046875 -4.363281 6.804688 -4.984375 6.328125 -5.515625 C 5.828125 -6.046875 5.210938 -6.3125 4.484375 -6.3125 C 3.753906 -6.3125 3.144531 -6.046875 2.65625 -5.515625 C 2.15625 -4.984375 1.90625 -4.363281 1.90625 -3.65625 C 1.90625 -2.945312 2.15625 -2.328125 2.65625 -1.796875 C 3.144531 -1.265625 3.753906 -1 4.484375 -1 C 5.210938 -1 5.828125 -1.265625 6.328125 -1.796875 C 6.804688 -2.328125 7.046875 -2.945312 7.046875 -3.65625 Z M 8.21875 0 L 7.046875 0 L 7.046875 -1.25 C 6.984375 -1.15625 6.921875 -1.070312 6.859375 -1 C 6.160156 -0.21875 5.304688 0.171875 4.296875 0.171875 C 3.285156 0.171875 2.441406 -0.21875 1.765625 -1 C 1.085938 -1.75 0.75 -2.632812 0.75 -3.65625 C 0.75 -4.664062 1.085938 -5.550781 1.765625 -6.3125 C 2.441406 -7.082031 3.285156 -7.46875 4.296875 -7.46875 C 5.304688 -7.46875 6.160156 -7.082031 6.859375 -6.3125 C 6.921875 -6.226562 6.984375 -6.144531 7.046875 -6.0625 L 7.046875 -7.296875 L 8.21875 -7.296875 Z M 8.21875 0 "/></g></g></g><g clip-path="url(#c2c2e1b3fc)"><g clip-path="url(#1717926bf8)"><path stroke-linecap="butt" transform="matrix(0.693267, 0, 0, 0.693267, -0.000000000000021195, 0.19914)" fill="none" stroke-linejoin="miter" d="M 17.207929 0.000113865 L 170.304408 0.000113865 C 174.868397 0.000113865 179.246445 1.81444 182.475045 5.04304 C 185.703645 8.266005 187.517971 12.644054 187.517971 17.208043 L 187.517971 208.337764 C 187.517971 212.901753 185.703645 217.279802 182.475045 220.502767 C 179.246445 223.731366 174.868397 225.545693 170.304408 225.545693 L 17.207929 225.545693 C 12.64394 225.545693 8.265891 223.731366 5.042926 220.502767 C 1.814327 217.279802 0.000000000000030573 212.901753 0.000000000000030573 208.337764 L 0.000000000000030573 17.208043 C 0.000000000000030573 12.644054 1.814327 8.266005 5.042926 5.04304 C 8.265891 1.81444 12.64394 0.000113865 17.207929 0.000113865 Z M 17.207929 0.000113865 " stroke="#000000" stroke-width="4.302751" stroke-opacity="1" stroke-miterlimit="4"/></g></g></svg>